<?xml version="1.0" encoding="utf-8"?>
    <!-- Generator: Grasshopper 1.0.0, Redback Plugin. SVG Version: 6.00 Build 0) Made by Andrew Butler at Cox Architecture -->
    <!DOCTYPE svg PUBLIC "-//W3C//DTD SVG 1.1//EN" "http://www.w3.org/Graphics/SVG/1.1/DTD/svg11.dtd">
    <svg version="1.1" xmlns="http://www.w3.org/2000/svg" xmlns:xlink="http://www.w3.org/1999/xlink" x="0px" y="0px"
    width="297mm" height="210mm" viewBox="0 0 297 210" xml:space="preserve">
    <style type="text/css">
    
    </style>
    <path spline_1deg="" d=" M21.33,75.75 L21.52,75.75 L21.72,75.78 L21.79,75.81 L21.85,75.86 L21.93,76.01 L21.96,76.20 L21.96,76.60 L21.93,76.80 L21.85,76.94 L21.79,76.99 L21.72,77.03 L21.52,77.06 L21.33,77.06Z" />
<path spline_1deg="" d=" M23.23,76.57 L23.59,76.57 L23.70,76.58 L23.79,76.63 L23.84,76.70 L23.86,76.80 L23.86,76.83 L23.84,76.93 L23.79,77.00 L23.70,77.04 L23.59,77.06 L23.23,77.06Z" />
<path spline_1deg="" d=" M23.23,75.75 L23.58,75.75 L23.69,75.76 L23.78,75.80 L23.83,75.88 L23.85,75.97 L23.85,76.00 L23.83,76.09 L23.77,76.17 L23.69,76.21 L23.58,76.23 L23.23,76.23Z" />
<path spline_1deg="" d=" M26.02,75.64 L26.26,76.61 L25.72,76.61 L25.96,75.64Z" />
<path spline_1deg="" d=" M24.87,60.24 L25.06,60.24 L25.26,60.27 L25.34,60.30 L25.40,60.36 L25.48,60.50 L25.50,60.69 L25.50,61.09 L25.48,61.29 L25.40,61.43 L25.34,61.48 L25.26,61.52 L25.06,61.55 L24.87,61.55Z" />
<path spline_1deg="" d=" M83.55,143.40 L83.74,143.40 L83.94,143.43 L84.01,143.47 L84.07,143.52 L84.15,143.66 L84.18,143.86 L84.18,144.26 L84.15,144.45 L84.07,144.59 L84.01,144.65 L83.94,144.68 L83.74,144.71 L83.55,144.71Z" />
<path spline_1deg="" d=" M87.75,144.77 L87.57,144.74 L87.44,144.66 L87.36,144.52 L87.33,144.32 L87.33,143.79 L87.36,143.60 L87.44,143.46 L87.58,143.37 L87.75,143.34 L87.92,143.37 L88.06,143.46 L88.14,143.60 L88.17,143.79 L88.17,144.32 L88.14,144.51 L88.07,144.65 L88.01,144.71 L87.94,144.74Z" />
<path spline_1deg="" d=" M201.15,100.86 L200.82,101.43 L200.74,101.35 L200.70,101.24 L200.70,101.13 L200.75,101.01 L200.83,100.90 L200.93,100.85 L201.04,100.83Z" />
<path spline_1deg="" d=" M202.76,98.08 L202.43,98.65 L202.35,98.56 L202.31,98.46 L202.31,98.34 L202.36,98.22 L202.44,98.12 L202.54,98.06 L202.65,98.05Z" />
<path spline_1deg="" d=" M159.72,100.02 L159.67,99.87 L159.67,99.73 L159.75,99.59 L159.89,99.48 L159.91,99.47 L160.08,99.40 L160.23,99.41 L160.36,99.47 L160.46,99.59 L160.51,99.74 L160.51,99.88 L160.43,100.02 L160.29,100.13 L160.27,100.14 L160.10,100.21 L159.95,100.20 L159.82,100.14Z" />
<path spline_1deg="" d=" M180.16,64.76 L179.49,64.76 L179.53,64.65 L179.60,64.56 L179.70,64.50 L179.83,64.49 L179.96,64.50 L180.06,64.56 L180.13,64.65Z" />
<path spline_1deg="" d=" M183.37,64.76 L182.71,64.76 L182.75,64.65 L182.81,64.56 L182.92,64.50 L183.05,64.49 L183.17,64.50 L183.27,64.56 L183.34,64.65Z" />
    </svg>