<?xml version="1.0" encoding="utf-8"?>
    <!-- Generator: Grasshopper 1.0.0, Redback Plugin. SVG Version: 6.00 Build 0) Made by Andrew Butler at Cox Architecture -->
    <!DOCTYPE svg PUBLIC "-//W3C//DTD SVG 1.1//EN" "http://www.w3.org/Graphics/SVG/1.1/DTD/svg11.dtd">
    <svg version="1.1" xmlns="http://www.w3.org/2000/svg" xmlns:xlink="http://www.w3.org/1999/xlink" x="0px" y="0px"
    width="297mm" height="210mm" viewBox="0 0 297 210" xml:space="preserve">
    <style type="text/css">
    
    </style>
    <path spline_1deg="" d=" M21.51,75.40 L20.69,75.40 L20.69,75.73 L20.95,75.73 L20.95,77.07 L20.69,77.07 L20.69,77.40 L21.51,77.40 L21.70,77.39 L21.87,77.35 L22.01,77.29 L22.13,77.20 L22.22,77.08 L22.28,76.94 L22.32,76.78 L22.34,76.59 L22.34,76.21 L22.32,76.03 L22.28,75.86 L22.22,75.72 L22.13,75.61 L22.01,75.52 L21.87,75.45 L21.70,75.42Z" />
<path spline_1deg="" d=" M23.62,75.40 L22.59,75.40 L22.59,75.73 L22.86,75.73 L22.86,77.07 L22.59,77.07 L22.59,77.40 L23.63,77.40 L23.80,77.39 L23.95,77.34 L24.07,77.26 L24.16,77.16 L24.22,77.03 L24.24,76.87 L24.24,76.85 L24.23,76.72 L24.19,76.61 L24.13,76.54 L24.06,76.48 L23.92,76.41 L23.92,76.36 L24.05,76.30 L24.12,76.24 L24.18,76.16 L24.21,76.06 L24.23,75.94 L24.23,75.91 L24.21,75.76 L24.15,75.64 L24.06,75.54 L23.94,75.46 L23.79,75.42Z" />
<path spline_1deg="" d=" M25.66,75.40 L25.14,77.40 L25.52,77.40 L25.63,76.96 L26.35,76.96 L26.46,77.40 L26.84,77.40 L26.32,75.40Z" />
<path spline_1deg="" d=" M27.50,76.15 L27.45,76.15 L27.45,75.99 L27.10,75.99 L27.10,77.40 L27.46,77.40 L27.46,76.60 L27.48,76.47 L27.54,76.37 L27.65,76.32 L27.77,76.30 L27.95,76.30 L27.95,75.98 L27.78,75.98 L27.69,75.99 L27.61,76.02 L27.54,76.07Z" />
<path spline_1deg="" d=" M28.89,77.44 L29.08,77.42 L29.24,77.37 L29.37,77.29 L29.48,77.18 L29.55,77.04 L29.60,76.90 L29.26,76.82 L29.22,76.94 L29.15,77.04 L29.05,77.10 L28.90,77.12 L28.80,77.11 L28.71,77.08 L28.63,77.02 L28.57,76.94 L28.53,76.83 L28.52,76.71 L28.52,76.68 L28.53,76.56 L28.57,76.45 L28.63,76.37 L28.71,76.31 L28.80,76.28 L28.90,76.27 L29.00,76.28 L29.08,76.31 L29.15,76.35 L29.20,76.41 L29.25,76.57 L29.60,76.49 L29.55,76.35 L29.48,76.21 L29.37,76.10 L29.24,76.02 L29.08,75.96 L28.89,75.95 L28.70,75.97 L28.52,76.03 L28.37,76.14 L28.26,76.28 L28.18,76.46 L28.16,76.67 L28.16,76.71 L28.18,76.93 L28.26,77.11 L28.37,77.25 L28.52,77.36 L28.70,77.42Z" />
<path spline_1deg="" d=" M30.31,76.16 L30.26,76.16 L30.26,75.40 L29.90,75.40 L29.90,77.40 L30.26,77.40 L30.26,76.68 L30.28,76.51 L30.35,76.38 L30.46,76.29 L30.61,76.27 L30.74,76.29 L30.83,76.35 L30.89,76.45 L30.91,76.59 L30.91,77.40 L31.27,77.40 L31.27,76.56 L31.26,76.39 L31.20,76.25 L31.12,76.13 L31.01,76.04 L30.88,75.98 L30.72,75.96 L30.51,75.99 L30.38,76.07Z" />
<path spline_1deg="" d=" M22.71,59.89 L22.71,61.89 L24.01,61.89 L24.01,61.55 L23.09,61.55 L23.09,61.06 L23.91,61.06 L23.91,60.71 L23.09,60.71 L23.09,60.24 L23.99,60.24 L23.99,59.89Z" />
<path spline_1deg="" d=" M25.06,59.89 L24.23,59.89 L24.23,60.23 L24.50,60.23 L24.50,61.56 L24.23,61.56 L24.23,61.89 L25.06,61.89 L25.25,61.88 L25.41,61.84 L25.55,61.78 L25.67,61.69 L25.76,61.58 L25.83,61.44 L25.87,61.27 L25.88,61.08 L25.88,60.71 L25.87,60.52 L25.83,60.35 L25.76,60.21 L25.67,60.10 L25.55,60.01 L25.41,59.95 L25.25,59.91Z" />
<path spline_1deg="" d=" M26.89,61.93 L27.02,61.92 L27.13,61.90 L27.26,61.81 L27.33,61.70 L27.38,61.70 L27.38,61.89 L27.73,61.89 L27.73,60.87 L26.88,60.87 L26.88,61.19 L27.35,61.19 L27.35,61.22 L27.33,61.37 L27.26,61.49 L27.14,61.58 L26.96,61.60 L26.78,61.57 L26.64,61.48 L26.55,61.33 L26.53,61.14 L26.53,60.65 L26.55,60.46 L26.64,60.31 L26.78,60.22 L26.95,60.19 L27.08,60.20 L27.18,60.24 L27.25,60.30 L27.31,60.38 L27.34,60.47 L27.35,60.57 L27.35,60.59 L27.73,60.59 L27.73,60.58 L27.71,60.42 L27.68,60.28 L27.61,60.16 L27.52,60.05 L27.41,59.96 L27.28,59.90 L27.13,59.87 L26.95,59.85 L26.78,59.87 L26.62,59.91 L26.48,59.97 L26.37,60.06 L26.27,60.18 L26.20,60.31 L26.16,60.47 L26.15,60.65 L26.15,61.13 L26.17,61.37 L26.25,61.57 L26.36,61.73 L26.51,61.84 L26.69,61.91Z" />
<path spline_1deg="" d=" M28.09,59.89 L28.09,61.89 L29.39,61.89 L29.39,61.55 L28.46,61.55 L28.46,61.06 L29.29,61.06 L29.29,60.71 L28.46,60.71 L28.46,60.24 L29.37,60.24 L29.37,59.89Z" />
<path spline_1deg="" d=" M83.73,143.06 L82.91,143.06 L82.91,143.39 L83.17,143.39 L83.17,144.73 L82.91,144.73 L82.91,145.06 L83.73,145.06 L83.92,145.04 L84.09,145.01 L84.23,144.94 L84.35,144.85 L84.44,144.74 L84.50,144.60 L84.54,144.43 L84.56,144.25 L84.56,143.87 L84.54,143.68 L84.50,143.52 L84.44,143.38 L84.35,143.26 L84.23,143.17 L84.09,143.11 L83.92,143.07Z" />
<path spline_1deg="" d=" M85.42,143.33 L85.42,145.06 L85.79,145.06 L85.79,143.06 L85.13,143.06 L84.72,143.96 L85.10,143.96 L85.37,143.33Z" />
<path spline_1deg="" d=" M86.40,145.10 L86.51,145.08 L86.59,145.02 L86.65,144.94 L86.67,144.83 L86.65,144.72 L86.59,144.63 L86.51,144.57 L86.40,144.55 L86.29,144.57 L86.21,144.63 L86.15,144.72 L86.13,144.83 L86.15,144.93 L86.21,145.02 L86.29,145.08Z" />
<path spline_1deg="" d=" M87.75,145.10 L87.92,145.08 L88.07,145.05 L88.21,144.99 L88.32,144.90 L88.41,144.79 L88.48,144.66 L88.52,144.49 L88.53,144.31 L88.53,143.81 L88.52,143.62 L88.48,143.47 L88.41,143.33 L88.32,143.22 L88.21,143.13 L88.07,143.07 L87.92,143.03 L87.75,143.02 L87.58,143.03 L87.43,143.07 L87.30,143.13 L87.18,143.22 L87.09,143.33 L87.02,143.47 L86.98,143.62 L86.97,143.81 L86.97,144.31 L86.98,144.49 L87.02,144.66 L87.09,144.79 L87.18,144.90 L87.30,144.99 L87.43,145.05 L87.58,145.08Z" />
<path spline_1deg="" d=" M89.55,145.10 L89.76,145.08 L89.94,145.02 L90.09,144.92 L90.21,144.80 L90.28,144.64 L90.30,144.46 L90.30,144.42 L90.28,144.26 L90.22,144.13 L90.12,144.03 L90.01,143.96 L89.88,143.92 L89.75,143.91 L89.64,143.91 L89.64,143.86 L90.24,143.54 L90.24,143.06 L88.83,143.06 L88.83,143.38 L89.84,143.38 L89.84,143.43 L89.19,143.77 L89.19,144.17 L89.59,144.17 L89.77,144.20 L89.83,144.23 L89.89,144.28 L89.92,144.35 L89.93,144.43 L89.93,144.46 L89.91,144.58 L89.83,144.68 L89.71,144.75 L89.55,144.77 L89.38,144.75 L89.25,144.68 L89.17,144.56 L89.14,144.42 L89.14,144.38 L88.77,144.38 L88.77,144.43 L88.80,144.62 L88.87,144.79 L88.99,144.92 L89.15,145.02 L89.33,145.08Z" />
<path spline_1deg="" d=" M198.91,102.48 L200.64,103.48 L201.29,102.36 L200.99,102.19 L200.53,102.98 L199.10,102.15Z" />
<path spline_1deg="" d=" M201.78,101.59 L201.86,101.43 L201.89,101.28 L201.88,101.15 L201.86,101.03 L201.78,100.85 L201.50,101.03 L201.57,101.20 L201.57,101.30 L201.51,101.42 L201.43,101.53 L201.31,101.59 L201.18,101.61 L201.05,101.57 L201.56,100.68 L201.46,100.61 L201.27,100.53 L201.09,100.50 L200.91,100.51 L200.74,100.58 L200.60,100.69 L200.48,100.85 L200.40,101.03 L200.37,101.21 L200.40,101.39 L200.47,101.55 L200.59,101.70 L200.76,101.82 L200.79,101.84 L200.98,101.93 L201.17,101.96 L201.35,101.94 L201.52,101.87 L201.66,101.75Z" />
<path spline_1deg="" d=" M200.94,100.13 L202.40,100.44 L202.68,99.95 L201.68,98.85 L201.49,99.18 L202.32,100.04 L202.30,100.09 L201.13,99.79Z" />
<path spline_1deg="" d=" M203.39,98.81 L203.46,98.64 L203.49,98.50 L203.49,98.37 L203.47,98.25 L203.38,98.07 L203.10,98.25 L203.18,98.41 L203.17,98.52 L203.12,98.64 L203.03,98.75 L202.92,98.81 L202.79,98.83 L202.66,98.79 L203.17,97.89 L203.07,97.83 L202.88,97.75 L202.69,97.71 L202.51,97.73 L202.35,97.79 L202.21,97.90 L202.09,98.06 L202.01,98.25 L201.98,98.43 L202.00,98.61 L202.08,98.77 L202.20,98.92 L202.37,99.04 L202.40,99.06 L202.59,99.14 L202.78,99.17 L202.96,99.15 L203.12,99.08 L203.27,98.97Z" />
<path spline_1deg="" d=" M202.12,96.92 L203.85,97.92 L204.03,97.61 L202.30,96.61Z" />
<path spline_1deg="" d=" M159.93,96.94 L158.20,97.94 L158.38,98.27 L159.10,97.85 L159.48,98.50 L158.76,98.91 L158.94,99.24 L160.68,98.24 L160.49,97.91 L159.77,98.32 L159.40,97.68 L160.12,97.27Z" />
<path spline_1deg="" d=" M159.44,100.18 L159.56,100.34 L159.71,100.46 L159.87,100.54 L160.05,100.57 L160.25,100.54 L160.44,100.46 L160.48,100.44 L160.65,100.31 L160.77,100.16 L160.84,99.98 L160.85,99.80 L160.82,99.61 L160.74,99.43 L160.62,99.27 L160.47,99.14 L160.31,99.07 L160.13,99.04 L159.93,99.06 L159.74,99.15 L159.70,99.17 L159.53,99.30 L159.41,99.45 L159.34,99.62 L159.33,99.81 L159.36,99.99Z" />
<path spline_1deg="" d=" M160.27,101.62 L160.42,101.81 L160.59,101.93 L160.69,101.96 L160.78,101.96 L160.88,101.94 L160.97,101.90 L161.08,101.82 L161.14,101.72 L161.16,101.60 L161.15,101.47 L161.07,101.18 L161.05,101.11 L161.01,100.95 L161.03,100.89 L161.07,100.85 L161.13,100.83 L161.18,100.84 L161.24,100.89 L161.29,100.96 L161.33,101.05 L161.34,101.14 L161.32,101.22 L161.25,101.29 L161.51,101.53 L161.61,101.39 L161.65,101.21 L161.63,101.02 L161.54,100.82 L161.40,100.64 L161.24,100.53 L161.15,100.50 L161.06,100.49 L160.97,100.51 L160.88,100.55 L160.78,100.63 L160.72,100.73 L160.70,100.85 L160.70,100.97 L160.77,101.25 L160.80,101.32 L160.84,101.51 L160.82,101.57 L160.78,101.61 L160.72,101.63 L160.65,101.61 L160.58,101.56 L160.52,101.48 L160.47,101.33 L160.46,101.26 L160.48,101.19 L160.52,101.12 L160.58,101.05 L160.34,100.81 L160.26,100.88 L160.20,100.97 L160.17,101.06 L160.15,101.16 L160.17,101.38Z" />
<path spline_1deg="" d=" M161.03,102.86 L161.23,103.20 L161.49,103.05 L161.35,102.82 L161.34,102.75 L161.39,102.70 L162.03,102.33 L162.22,102.67 L162.48,102.52 L162.28,102.19 L162.66,101.97 L162.48,101.65 L162.10,101.87 L161.93,101.57 L161.67,101.72 L161.85,102.02 L161.15,102.42 L161.05,102.51 L161.00,102.61 L160.99,102.73Z" />
<path spline_1deg="" d=" M177.63,63.63 L177.63,65.63 L178.93,65.63 L178.93,65.29 L178.01,65.29 L178.01,63.63Z" />
<path spline_1deg="" d=" M179.84,65.67 L180.02,65.65 L180.16,65.61 L180.27,65.54 L180.36,65.46 L180.48,65.30 L180.18,65.14 L180.07,65.29 L179.98,65.34 L179.85,65.35 L179.71,65.33 L179.60,65.26 L179.52,65.16 L179.49,65.03 L180.52,65.03 L180.52,64.90 L180.50,64.70 L180.44,64.52 L180.33,64.37 L180.20,64.26 L180.03,64.19 L179.83,64.17 L179.64,64.19 L179.46,64.26 L179.32,64.37 L179.21,64.52 L179.15,64.69 L179.13,64.90 L179.13,64.94 L179.15,65.14 L179.22,65.32 L179.32,65.47 L179.47,65.58 L179.64,65.65Z" />
<path spline_1deg="" d=" M180.69,64.21 L181.14,65.63 L181.71,65.63 L182.16,64.21 L181.78,64.21 L181.45,65.37 L181.40,65.37 L181.07,64.21Z" />
<path spline_1deg="" d=" M183.05,65.67 L183.23,65.65 L183.37,65.61 L183.49,65.54 L183.58,65.46 L183.69,65.30 L183.40,65.14 L183.29,65.29 L183.20,65.34 L183.07,65.35 L182.93,65.33 L182.81,65.26 L182.74,65.16 L182.71,65.03 L183.74,65.03 L183.74,64.90 L183.72,64.70 L183.65,64.52 L183.55,64.37 L183.41,64.26 L183.24,64.19 L183.05,64.17 L182.85,64.19 L182.68,64.26 L182.54,64.37 L182.43,64.52 L182.36,64.69 L182.34,64.90 L182.34,64.94 L182.36,65.14 L182.43,65.32 L182.54,65.47 L182.68,65.58 L182.86,65.65Z" />
<path spline_1deg="" d=" M184.06,63.63 L184.06,65.63 L184.42,65.63 L184.42,63.63Z" />
    </svg>