<?xml version="1.0" encoding="utf-8"?>
    <!-- Generator: Grasshopper 1.0.0, Redback Plugin. SVG Version: 6.00 Build 0) Made by Andrew Butler at Cox Architecture -->
    <!DOCTYPE svg PUBLIC "-//W3C//DTD SVG 1.1//EN" "http://www.w3.org/Graphics/SVG/1.1/DTD/svg11.dtd">
    <svg version="1.1" xmlns="http://www.w3.org/2000/svg" xmlns:xlink="http://www.w3.org/1999/xlink" x="0px" y="0px"
    width="297mm" height="210mm" viewBox="0 0 297 210" xml:space="preserve">
    <style type="text/css">
    *{fill:none; stroke-width:0.15mm; stroke-linejoin:round; stroke:black;}
    </style>
    <line x1="191.243240528" y1="186.272217133" x2="181.018134596" y2="135.469818546" />
<line x1="170.793028664" y1="186.272217133" x2="181.018134596" y2="135.469818546" />
<line x1="181.018134596" y1="115.019606681" x2="181.018134596" y2="135.469818546" />
<line x1="181.018134596" y1="94.5693948167" x2="181.018134596" y2="115.019606681" />
<line x1="211.693452392" y1="176.370242274" x2="181.018134596" y2="135.469818546" />
<line x1="150.342816799" y1="176.370242274" x2="181.018134596" y2="135.469818546" />
<line x1="181.018134596" y1="135.469818546" x2="221.918558325" y2="64.6282065961" />
<line x1="140.117710867" y1="64.6282065961" x2="181.018134596" y2="135.469818546" />
<line x1="262.818982053" y1="74.8533125283" x2="221.918558325" y2="64.6282065961" />
<line x1="262.818982053" y1="54.4031006639" x2="221.918558325" y2="64.6282065961" />
<line x1="99.2172871382" y1="95.3035243927" x2="140.117710867" y2="64.6282065961" />
<line x1="99.2172871382" y1="74.8533125283" x2="140.117710867" y2="64.6282065961" />
<line x1="99.2172871382" y1="54.4031006639" x2="140.117710867" y2="64.6282065961" />
<line x1="99.2172871382" y1="33.9528887995" x2="140.117710867" y2="64.6282065961" />
<line x1="140.117710867" y1="44.1779947317" x2="140.117710867" y2="64.6282065961" />
<line x1="140.117710867" y1="23.7277828673" x2="140.117710867" y2="44.1779947317" />
<line x1="221.918558325" y1="44.1779947317" x2="221.918558325" y2="64.6282065961" />
<line x1="221.918558325" y1="23.7277828673" x2="221.918558325" y2="44.1779947317" />
<line x1="140.117710867" y1="64.6282065961" x2="221.918558325" y2="64.6282065961" />
    </svg>