<?xml version="1.0" encoding="utf-8"?>
    <!-- Generator: Grasshopper 1.0.0, Redback Plugin. SVG Version: 6.00 Build 0) Made by Andrew Butler at Cox Architecture -->
    <!DOCTYPE svg PUBLIC "-//W3C//DTD SVG 1.1//EN" "http://www.w3.org/Graphics/SVG/1.1/DTD/svg11.dtd">
    <svg version="1.1" xmlns="http://www.w3.org/2000/svg" xmlns:xlink="http://www.w3.org/1999/xlink" x="0px" y="0px"
    width="297mm" height="210mm" viewBox="0 0 297 210" xml:space="preserve">
    <style type="text/css">
    *{fill:none; stroke-width:0.15mm; stroke-linejoin:round; stroke-linecap: round; stroke:black;}
.dbRelationship{
stroke-dasharray: 0.5mm 0.5mm;}
    </style>
    <line x1="12.5964591428" y1="76.402693214" x2="39.3662651432" y2="76.402693214" class="dbRelationship"/>
<line x1="12.5964591428" y1="60.8941689193" x2="39.3662651432" y2="60.8941689193" class="edge"/>
<line x1="134.137583567" y1="73.500255071" x2="86.579393498" y2="144.057041994" class="dbRelationship"/>
<line x1="108.388452051" y1="129.55" x2="108.388452051" y2="133.355570115" class="dbRelationship"/>
<line x1="64.7703349452" y1="129.55" x2="64.7703349452" y2="133.355567088" class="dbRelationship"/>
<line x1="78.7815068929" y1="144.057041994" x2="95.850958006" y2="144.057041994" class="edge"/>
<line x1="194.066185841" y1="180.792017098" x2="183.980303593" y2="145.758865461" class="dbRelationship"/>
<line x1="167.969935718" y1="180.792529899" x2="178.058668327" y2="145.749477577" class="dbRelationship"/>
<line x1="220.662115431" y1="172.424112401" x2="188.842971278" y2="142.76377107" class="dbRelationship"/>
<line x1="141.374050779" y1="172.424208395" x2="173.18546438" y2="142.77107313" class="dbRelationship"/>
<line x1="181.018134596" y1="120.963" x2="181.018134596" y2="124.768413889" class="dbRelationship"/>
<line x1="181.018134596" y1="100.514" x2="181.018134596" y2="109.075" class="dbRelationship"/>
<line x1="186.366884975" y1="126.205511131" x2="216.564247971" y2="73.9021441689" class="edge"/>
<line x1="145.466806393" y1="73.893111821" x2="175.663795059" y2="126.195830426" class="edge"/>
<line x1="251.788346388" y1="72.095653612" x2="232.296311184" y2="67.2226448109" class="dbRelationship"/>
<line x1="252.576676942" y1="56.9636769418" x2="232.29617062" y2="62.0338035222" class="dbRelationship"/>
<line x1="104.031033052" y1="91.6932149576" x2="131.551528803" y2="71.0528431442" class="dbRelationship"/>
<line x1="109.218537251" y1="72.353" x2="129.729555568" y2="67.2252454209" class="dbRelationship"/>
<line x1="109.248571756" y1="56.9109218185" x2="129.72992531" y2="62.0312602068" class="dbRelationship"/>
<line x1="104.03222855" y1="37.564094858" x2="131.552244854" y2="58.2041070861" class="dbRelationship"/>
<line x1="140.117710867" y1="50.122" x2="140.117710867" y2="53.9275768063" class="dbRelationship"/>
<line x1="140.117710867" y1="29.672" x2="140.117710867" y2="38.235" class="dbRelationship"/>
<line x1="221.918558325" y1="50.122" x2="221.918558325" y2="53.9275987157" class="dbRelationship"/>
<line x1="221.918558325" y1="29.672" x2="221.918558325" y2="38.235" class="dbRelationship"/>
<line x1="150.825" y1="64.6282065961" x2="211.221" y2="64.6282065961" class="edge"/>
<path spline_1deg="" d=" M37.12,62.19 L39.37,60.89 L37.12,59.60" />
<path spline_1deg="" d=" M14.85,59.60 L12.60,60.89 L14.85,62.19" />
<path spline_1deg="" d=" M93.60,145.36 L95.85,144.06 L93.60,142.76" />
<path spline_1deg="" d=" M81.03,142.76 L78.78,144.06 L81.03,145.36" />
<path spline_1deg="" d=" M216.56,76.50 L216.56,73.90 L214.31,75.20" />
<path spline_1deg="" d=" M173.41,124.90 L175.66,126.20 L175.66,123.60" />
<path spline_1deg="" d=" M208.97,65.93 L211.22,64.63 L208.97,63.33" />
    </svg>