<?xml version="1.0" encoding="utf-8"?>
    <!-- Generator: Grasshopper 1.0.0, Redback Plugin. SVG Version: 6.00 Build 0) Made by Andrew Butler at Cox Architecture -->
    <!DOCTYPE svg PUBLIC "-//W3C//DTD SVG 1.1//EN" "http://www.w3.org/Graphics/SVG/1.1/DTD/svg11.dtd">
    <svg version="1.1" xmlns="http://www.w3.org/2000/svg" xmlns:xlink="http://www.w3.org/1999/xlink" x="0px" y="0px"
    width="297mm" height="210mm" viewBox="0 0 297 210" xml:space="preserve">
    <style type="text/css">
    
    </style>
    <path spline_1deg="" d=" M18.20,31.13 L18.37,31.11 L18.50,31.08 L18.59,31.03 L18.65,30.97 L18.73,30.85 L18.79,30.85 L18.79,31.08 L19.21,31.08 L19.21,29.85 L18.20,29.85 L18.20,30.23 L18.77,30.23 L18.77,30.27 L18.74,30.45 L18.65,30.60 L18.59,30.65 L18.51,30.69 L18.29,30.73 L18.18,30.72 L18.07,30.69 L17.98,30.64 L17.91,30.57 L17.85,30.49 L17.81,30.40 L17.77,30.17 L17.77,29.58 L17.81,29.36 L17.85,29.26 L17.91,29.18 L17.98,29.12 L18.07,29.07 L18.17,29.04 L18.29,29.03 L18.43,29.05 L18.55,29.09 L18.65,29.16 L18.71,29.26 L18.75,29.37 L18.77,29.49 L18.77,29.51 L19.21,29.51 L19.21,29.50 L19.20,29.31 L19.15,29.14 L19.08,28.99 L18.97,28.86 L18.84,28.76 L18.68,28.69 L18.49,28.64 L18.29,28.63 L18.08,28.64 L17.89,28.69 L17.72,28.77 L17.58,28.88 L17.47,29.02 L17.38,29.18 L17.34,29.37 L17.32,29.59 L17.32,30.17 L17.35,30.45 L17.44,30.69 L17.58,30.88 L17.76,31.01 L17.97,31.10Z" />
<path spline_1deg="" d=" M19.64,28.68 L19.64,31.08 L21.21,31.08 L21.21,30.67 L20.10,30.67 L20.10,30.07 L21.09,30.07 L21.09,29.66 L20.10,29.66 L20.10,29.09 L21.19,29.09 L21.19,28.68Z" />
<path spline_1deg="" d=" M22.48,31.13 L22.69,31.11 L22.88,31.06 L23.05,30.99 L23.20,30.88 L23.31,30.74 L23.40,30.57 L23.45,30.38 L23.46,30.17 L23.46,29.59 L23.45,29.37 L23.40,29.18 L23.31,29.02 L23.20,28.88 L23.05,28.77 L22.88,28.69 L22.69,28.64 L22.48,28.63 L22.26,28.64 L22.07,28.69 L21.90,28.77 L21.76,28.88 L21.64,29.02 L21.56,29.18 L21.51,29.37 L21.49,29.59 L21.49,30.17 L21.51,30.38 L21.56,30.57 L21.64,30.74 L21.76,30.88 L21.90,30.99 L22.07,31.06 L22.26,31.11Z" />
<path spline_1deg="" d=" M23.86,28.68 L23.86,31.08 L24.30,31.08 L24.30,29.01 L24.36,29.01 L24.77,31.08 L25.52,31.08 L25.93,29.01 L25.99,29.01 L25.99,31.08 L26.43,31.08 L26.43,28.68 L25.59,28.68 L25.18,30.77 L25.12,30.77 L24.70,28.68Z" />
<path spline_1deg="" d=" M26.89,28.68 L26.89,31.08 L28.45,31.08 L28.45,30.67 L27.34,30.67 L27.34,30.07 L28.33,30.07 L28.33,29.66 L27.34,29.66 L27.34,29.09 L28.43,29.09 L28.43,28.68Z" />
<path spline_1deg="" d=" M29.34,29.09 L29.34,31.08 L29.79,31.08 L29.79,29.09 L30.49,29.09 L30.49,28.68 L28.64,28.68 L28.64,29.09Z" />
<path spline_1deg="" d=" M31.84,28.68 L30.80,28.68 L30.80,31.08 L31.25,31.08 L31.25,30.17 L31.88,30.17 L31.97,30.18 L32.03,30.22 L32.06,30.28 L32.07,30.36 L32.07,31.08 L32.52,31.08 L32.52,30.29 L32.50,30.16 L32.45,30.06 L32.36,29.99 L32.23,29.97 L32.23,29.90 L32.37,29.82 L32.49,29.71 L32.56,29.55 L32.59,29.36 L32.59,29.32 L32.57,29.14 L32.50,28.98 L32.39,28.85 L32.24,28.76 L32.05,28.70Z" />
<path spline_1deg="" d=" M33.58,30.25 L33.58,31.08 L34.04,31.08 L34.04,30.25 L34.85,28.68 L34.35,28.68 L33.84,29.71 L33.78,29.71 L33.27,28.68 L32.77,28.68Z" />
<path spline_1deg="" d=" M13.48,44.19 L13.48,46.59 L13.93,46.59 L13.93,45.59 L14.91,45.59 L14.91,45.18 L13.93,45.18 L13.93,44.60 L14.99,44.60 L14.99,44.19Z" />
<path spline_1deg="" d=" M15.31,44.19 L15.31,46.59 L16.88,46.59 L16.88,46.17 L15.76,46.17 L15.76,45.58 L16.76,45.58 L16.76,45.17 L15.76,45.17 L15.76,44.60 L16.85,44.60 L16.85,44.19Z" />
<path spline_1deg="" d=" M17.68,44.19 L17.05,46.59 L17.51,46.59 L17.64,46.06 L18.50,46.06 L18.63,46.59 L19.10,46.59 L18.47,44.19Z" />
<path spline_1deg="" d=" M19.94,44.60 L19.94,46.59 L20.39,46.59 L20.39,44.60 L21.09,44.60 L21.09,44.19 L19.24,44.19 L19.24,44.60Z" />
<path spline_1deg="" d=" M22.33,46.63 L22.60,46.61 L22.83,46.53 L23.02,46.39 L23.15,46.22 L23.24,46.00 L23.27,45.74 L23.27,44.19 L22.81,44.19 L22.81,45.76 L22.78,45.95 L22.69,46.10 L22.62,46.16 L22.54,46.20 L22.33,46.23 L22.12,46.20 L22.03,46.16 L21.96,46.10 L21.87,45.95 L21.84,45.76 L21.84,44.19 L21.39,44.19 L21.39,45.74 L21.42,46.00 L21.50,46.22 L21.63,46.39 L21.82,46.53 L22.05,46.61Z" />
<path spline_1deg="" d=" M24.75,44.19 L23.70,44.19 L23.70,46.59 L24.16,46.59 L24.16,45.68 L24.79,45.68 L24.87,45.69 L24.93,45.73 L24.96,45.79 L24.97,45.87 L24.97,46.59 L25.43,46.59 L25.43,45.80 L25.41,45.67 L25.35,45.57 L25.26,45.50 L25.14,45.47 L25.14,45.41 L25.28,45.33 L25.39,45.22 L25.47,45.06 L25.49,44.87 L25.49,44.83 L25.47,44.64 L25.40,44.49 L25.29,44.36 L25.14,44.26 L24.96,44.21Z" />
<path spline_1deg="" d=" M25.87,44.19 L25.87,46.59 L27.44,46.59 L27.44,46.17 L26.32,46.17 L26.32,45.58 L27.32,45.58 L27.32,45.17 L26.32,45.17 L26.32,44.60 L27.41,44.60 L27.41,44.19Z" />
<path spline_1deg="" d=" M29.55,46.63 L29.76,46.62 L29.95,46.57 L30.10,46.50 L30.24,46.39 L30.34,46.26 L30.42,46.11 L30.46,45.93 L30.48,45.73 L30.48,45.68 L30.03,45.68 L30.03,45.74 L30.00,45.93 L29.92,46.09 L29.85,46.15 L29.77,46.19 L29.55,46.23 L29.44,46.22 L29.34,46.19 L29.25,46.15 L29.18,46.08 L29.12,46.00 L29.07,45.91 L29.04,45.68 L29.04,45.09 L29.07,44.86 L29.12,44.77 L29.18,44.69 L29.25,44.63 L29.34,44.58 L29.44,44.55 L29.55,44.54 L29.77,44.58 L29.85,44.62 L29.92,44.68 L30.00,44.84 L30.03,45.03 L30.03,45.06 L30.48,45.06 L30.48,45.04 L30.46,44.84 L30.42,44.67 L30.34,44.51 L30.24,44.38 L30.10,44.27 L29.95,44.20 L29.76,44.15 L29.55,44.14 L29.34,44.15 L29.15,44.20 L28.99,44.28 L28.85,44.39 L28.73,44.52 L28.65,44.69 L28.60,44.88 L28.59,45.10 L28.59,45.67 L28.60,45.89 L28.65,46.08 L28.73,46.25 L28.85,46.39 L28.99,46.49 L29.15,46.57 L29.34,46.62Z" />
<path spline_1deg="" d=" M30.85,44.19 L30.85,46.59 L32.40,46.59 L32.40,46.17 L31.30,46.17 L31.30,44.19Z" />
<path spline_1deg="" d=" M33.17,44.19 L32.54,46.59 L33.01,46.59 L33.14,46.06 L34.00,46.06 L34.13,46.59 L34.59,46.59 L33.96,44.19Z" />
<path spline_1deg="" d=" M35.72,46.63 L35.97,46.61 L36.20,46.54 L36.38,46.43 L36.51,46.28 L36.60,46.10 L36.62,45.89 L36.60,45.69 L36.52,45.53 L36.39,45.41 L36.22,45.31 L36.01,45.23 L35.77,45.17 L35.69,45.15 L35.46,45.08 L35.38,45.03 L35.32,44.97 L35.28,44.91 L35.27,44.82 L35.30,44.70 L35.37,44.61 L35.50,44.55 L35.67,44.54 L35.80,44.55 L35.91,44.57 L36.00,44.63 L36.06,44.70 L36.10,44.80 L36.12,44.92 L36.12,45.02 L36.56,45.02 L36.56,44.92 L36.53,44.68 L36.45,44.49 L36.31,44.33 L36.13,44.23 L35.92,44.16 L35.67,44.14 L35.43,44.16 L35.23,44.22 L35.06,44.32 L34.93,44.46 L34.85,44.63 L34.83,44.84 L34.85,45.04 L34.92,45.19 L35.04,45.32 L35.19,45.41 L35.39,45.49 L35.62,45.55 L35.69,45.57 L35.96,45.64 L36.05,45.69 L36.12,45.75 L36.16,45.82 L36.18,45.91 L36.15,46.04 L36.06,46.14 L35.92,46.21 L35.72,46.24 L35.51,46.21 L35.35,46.13 L35.29,46.07 L35.25,45.99 L35.22,45.80 L35.22,45.71 L34.77,45.71 L34.77,45.80 L34.80,46.05 L34.89,46.25 L35.04,46.41 L35.22,46.53 L35.45,46.61Z" />
<path spline_1deg="" d=" M37.79,46.63 L38.05,46.61 L38.27,46.54 L38.46,46.43 L38.59,46.28 L38.67,46.10 L38.70,45.89 L38.67,45.69 L38.60,45.53 L38.47,45.41 L38.30,45.31 L38.09,45.23 L37.85,45.17 L37.77,45.15 L37.54,45.08 L37.45,45.03 L37.40,44.97 L37.36,44.91 L37.35,44.82 L37.38,44.70 L37.45,44.61 L37.57,44.55 L37.75,44.54 L37.88,44.55 L37.99,44.57 L38.08,44.63 L38.14,44.70 L38.18,44.80 L38.19,44.92 L38.19,45.02 L38.64,45.02 L38.64,44.92 L38.61,44.68 L38.52,44.49 L38.39,44.33 L38.21,44.23 L37.99,44.16 L37.75,44.14 L37.51,44.16 L37.30,44.22 L37.14,44.32 L37.01,44.46 L36.93,44.63 L36.90,44.84 L36.93,45.04 L37.00,45.19 L37.11,45.32 L37.27,45.41 L37.46,45.49 L37.69,45.55 L37.77,45.57 L38.03,45.64 L38.13,45.69 L38.20,45.75 L38.24,45.82 L38.26,45.91 L38.23,46.04 L38.14,46.14 L38.00,46.21 L37.79,46.24 L37.59,46.21 L37.43,46.13 L37.37,46.07 L37.33,45.99 L37.30,45.80 L37.30,45.71 L36.85,45.71 L36.85,45.80 L36.88,46.05 L36.97,46.25 L37.11,46.41 L37.30,46.53 L37.53,46.61Z" />
<path spline_1deg="" d=" M19.75,12.57 L19.75,16.17 L20.42,16.17 L20.42,13.03 L20.51,13.03 L21.23,16.17 L22.52,16.17 L22.52,12.57 L21.85,12.57 L21.85,15.71 L21.76,15.71 L21.04,12.57Z" />
<path spline_1deg="" d=" M24.60,16.24 L24.92,16.22 L25.20,16.15 L25.46,16.03 L25.68,15.87 L25.85,15.66 L25.98,15.41 L26.05,15.13 L26.08,14.80 L26.08,13.94 L26.05,13.61 L25.98,13.32 L25.85,13.08 L25.68,12.87 L25.46,12.71 L25.20,12.59 L24.92,12.52 L24.60,12.50 L24.27,12.52 L23.99,12.59 L23.73,12.71 L23.52,12.87 L23.34,13.08 L23.21,13.32 L23.14,13.61 L23.11,13.94 L23.11,14.80 L23.14,15.13 L23.21,15.41 L23.34,15.66 L23.52,15.87 L23.73,16.03 L23.99,16.15 L24.27,16.22Z" />
<path spline_1deg="" d=" M28.05,12.57 L26.57,12.57 L26.57,13.17 L27.04,13.17 L27.04,15.57 L26.57,15.57 L26.57,16.17 L28.05,16.17 L28.39,16.15 L28.69,16.08 L28.94,15.96 L29.15,15.80 L29.32,15.59 L29.44,15.34 L29.51,15.05 L29.53,14.71 L29.53,14.03 L29.51,13.69 L29.44,13.39 L29.32,13.14 L29.15,12.94 L28.94,12.78 L28.69,12.66 L28.39,12.59Z" />
<path spline_1deg="" d=" M30.10,12.57 L30.10,16.17 L32.44,16.17 L32.44,15.55 L30.78,15.55 L30.78,14.66 L32.27,14.66 L32.27,14.04 L30.78,14.04 L30.78,13.19 L32.41,13.19 L32.41,12.57Z" />
<path spline_1deg="" d=" M182.53,185.07 L181.48,185.07 L181.48,187.47 L181.94,187.47 L181.94,186.57 L182.57,186.57 L182.65,186.58 L182.71,186.62 L182.74,186.68 L182.75,186.75 L182.75,187.47 L183.20,187.47 L183.20,186.69 L183.19,186.56 L183.13,186.46 L183.04,186.39 L182.92,186.36 L182.92,186.30 L183.05,186.22 L183.17,186.10 L183.25,185.95 L183.27,185.75 L183.27,185.71 L183.25,185.53 L183.18,185.37 L183.07,185.25 L182.92,185.15 L182.74,185.09Z" />
<path spline_1deg="" d=" M184.44,187.52 L184.65,187.50 L184.82,187.45 L184.96,187.37 L185.06,187.27 L185.20,187.07 L184.85,186.89 L184.79,186.98 L184.72,187.06 L184.61,187.12 L184.45,187.14 L184.29,187.12 L184.15,187.03 L184.06,186.91 L184.02,186.75 L185.26,186.75 L185.26,186.60 L185.23,186.36 L185.15,186.14 L185.03,185.97 L184.87,185.84 L184.67,185.75 L184.43,185.72 L184.19,185.75 L183.99,185.83 L183.82,185.96 L183.69,186.14 L183.61,186.35 L183.58,186.60 L183.58,186.64 L183.61,186.89 L183.69,187.11 L183.82,187.28 L183.99,187.41 L184.20,187.49Z" />
<path spline_1deg="" d=" M185.46,185.77 L186.00,187.47 L186.68,187.47 L187.23,185.77 L186.77,185.77 L186.37,187.16 L186.31,187.16 L185.92,185.77Z" />
<path spline_1deg="" d=" M187.52,185.77 L187.52,187.47 L187.95,187.47 L187.95,185.77Z" />
<path spline_1deg="" d=" M187.74,185.57 L187.85,185.55 L187.94,185.50 L187.99,185.41 L188.01,185.30 L187.99,185.19 L187.94,185.10 L187.85,185.04 L187.74,185.02 L187.63,185.04 L187.54,185.10 L187.48,185.19 L187.46,185.30 L187.48,185.41 L187.54,185.50 L187.63,185.55Z" />
<path spline_1deg="" d=" M189.08,187.47 L189.56,187.47 L189.56,187.12 L189.23,187.12 L189.16,187.09 L189.14,187.01 L189.14,186.13 L189.61,186.13 L189.61,185.77 L189.14,185.77 L189.14,185.24 L188.71,185.24 L188.71,185.77 L188.28,185.77 L188.28,186.13 L188.71,186.13 L188.71,187.09 L188.73,187.25 L188.81,187.37 L188.93,187.45Z" />
<path spline_1deg="" d=" M190.85,185.07 L190.85,187.47 L191.31,187.47 L191.31,186.47 L192.28,186.47 L192.28,186.06 L191.31,186.06 L191.31,185.48 L192.36,185.48 L192.36,185.07Z" />
<path spline_1deg="" d=" M193.23,187.52 L193.39,187.51 L193.51,187.47 L193.60,187.41 L193.66,187.35 L193.72,187.24 L193.78,187.24 L193.78,187.25 L193.81,187.34 L193.87,187.41 L193.96,187.46 L194.08,187.47 L194.36,187.47 L194.36,187.12 L194.23,187.12 L194.15,187.09 L194.13,187.01 L194.13,186.38 L194.12,186.23 L194.08,186.10 L194.02,185.99 L193.94,185.89 L193.83,185.82 L193.70,185.77 L193.56,185.73 L193.40,185.72 L193.20,185.74 L193.03,185.79 L192.89,185.87 L192.79,185.97 L192.71,186.08 L192.66,186.20 L193.05,186.34 L193.09,186.23 L193.16,186.15 L193.26,186.09 L193.40,186.07 L193.54,186.09 L193.64,186.15 L193.69,186.24 L193.71,186.35 L193.71,186.44 L193.25,186.44 L193.07,186.46 L192.91,186.50 L192.77,186.58 L192.67,186.68 L192.61,186.81 L192.59,186.98 L192.61,187.14 L192.67,187.27 L192.77,187.38 L192.90,187.46 L193.05,187.50Z" />
<path spline_1deg="" d=" M195.17,185.96 L195.10,185.96 L195.10,185.77 L194.68,185.77 L194.68,187.47 L195.11,187.47 L195.11,186.47 L195.13,186.31 L195.19,186.20 L195.29,186.13 L195.42,186.10 L195.54,186.12 L195.62,186.17 L195.68,186.26 L195.69,186.39 L195.69,187.47 L196.13,187.47 L196.13,186.47 L196.15,186.31 L196.21,186.20 L196.30,186.13 L196.43,186.10 L196.55,186.12 L196.64,186.17 L196.69,186.26 L196.71,186.39 L196.71,187.47 L197.14,187.47 L197.14,186.35 L197.12,186.17 L197.06,186.01 L196.97,185.90 L196.86,185.81 L196.72,185.76 L196.57,185.74 L196.40,185.76 L196.27,185.82 L196.18,185.90 L196.11,186.00 L196.04,186.00 L195.97,185.90 L195.88,185.81 L195.75,185.76 L195.58,185.74 L195.43,185.76 L195.31,185.81 L195.23,185.88Z" />
<path spline_1deg="" d=" M197.61,185.77 L197.61,187.47 L198.04,187.47 L198.04,185.77Z" />
<path spline_1deg="" d=" M197.82,185.57 L197.93,185.55 L198.02,185.50 L198.08,185.41 L198.10,185.30 L198.08,185.19 L198.02,185.10 L197.93,185.04 L197.82,185.02 L197.72,185.04 L197.63,185.10 L197.57,185.19 L197.55,185.30 L197.57,185.41 L197.63,185.50 L197.72,185.55Z" />
<path spline_1deg="" d=" M198.52,185.07 L198.52,187.47 L198.95,187.47 L198.95,185.07Z" />
<path spline_1deg="" d=" M200.54,187.78 L199.62,187.78 L199.62,188.16 L200.69,188.16 L200.84,188.13 L200.96,188.05 L201.04,187.93 L201.06,187.77 L201.06,185.77 L200.63,185.77 L200.63,186.64 L200.60,186.85 L200.52,187.00 L200.39,187.10 L200.21,187.14 L200.06,187.11 L199.94,187.04 L199.87,186.92 L199.85,186.75 L199.85,185.77 L199.42,185.77 L199.42,186.79 L199.44,186.98 L199.50,187.16 L199.60,187.30 L199.73,187.41 L199.89,187.48 L200.08,187.50 L200.22,187.49 L200.33,187.46 L200.49,187.37 L200.58,187.25 L200.64,187.25 L200.64,187.68 L200.61,187.76Z" />
<path spline_1deg="" d=" M163.06,185.07 L162.02,185.07 L162.02,187.47 L162.47,187.47 L162.47,186.57 L163.10,186.57 L163.19,186.58 L163.25,186.62 L163.28,186.68 L163.29,186.75 L163.29,187.47 L163.74,187.47 L163.74,186.69 L163.72,186.56 L163.67,186.46 L163.57,186.39 L163.45,186.36 L163.45,186.30 L163.59,186.22 L163.71,186.10 L163.78,185.95 L163.81,185.75 L163.81,185.71 L163.79,185.53 L163.72,185.37 L163.61,185.25 L163.46,185.15 L163.27,185.09Z" />
<path spline_1deg="" d=" M164.69,185.98 L164.63,185.98 L164.63,185.07 L164.20,185.07 L164.20,187.47 L164.63,187.47 L164.63,186.61 L164.66,186.40 L164.74,186.24 L164.87,186.14 L165.05,186.11 L165.20,186.13 L165.32,186.20 L165.39,186.32 L165.41,186.49 L165.41,187.47 L165.85,187.47 L165.85,186.46 L165.83,186.26 L165.76,186.09 L165.66,185.94 L165.53,185.84 L165.37,185.77 L165.18,185.74 L165.05,185.75 L164.94,185.78 L164.78,185.87Z" />
<path spline_1deg="" d=" M166.31,185.77 L166.31,187.47 L166.74,187.47 L166.74,185.77Z" />
<path spline_1deg="" d=" M166.53,185.57 L166.64,185.55 L166.73,185.50 L166.79,185.41 L166.81,185.30 L166.79,185.19 L166.73,185.10 L166.64,185.04 L166.53,185.02 L166.42,185.04 L166.33,185.10 L166.27,185.19 L166.25,185.30 L166.27,185.41 L166.33,185.50 L166.42,185.55Z" />
<path spline_1deg="" d=" M167.71,185.99 L167.65,185.99 L167.65,185.77 L167.22,185.77 L167.22,187.47 L167.66,187.47 L167.66,186.61 L167.68,186.40 L167.77,186.24 L167.90,186.14 L168.07,186.11 L168.23,186.13 L168.34,186.20 L168.41,186.32 L168.44,186.49 L168.44,187.47 L168.87,187.47 L168.87,186.46 L168.85,186.26 L168.79,186.09 L168.69,185.94 L168.56,185.84 L168.39,185.77 L168.21,185.74 L168.01,185.76 L167.87,185.82 L167.77,185.91Z" />
<path spline_1deg="" d=" M170.15,187.52 L170.39,187.49 L170.60,187.42 L170.78,187.29 L170.92,187.12 L171.01,186.90 L171.04,186.65 L171.04,186.59 L171.01,186.34 L170.92,186.12 L170.78,185.95 L170.60,185.83 L170.39,185.75 L170.15,185.72 L169.90,185.75 L169.69,185.83 L169.51,185.95 L169.37,186.12 L169.28,186.34 L169.25,186.59 L169.25,186.65 L169.28,186.90 L169.37,187.12 L169.51,187.29 L169.69,187.42 L169.90,187.49Z" />
<path spline_1deg="" d=" M173.46,185.07 L172.22,185.07 L172.22,185.47 L172.54,185.47 L172.54,187.07 L172.22,187.07 L172.22,187.47 L173.47,187.47 L173.67,187.45 L173.85,187.40 L173.99,187.30 L174.11,187.18 L174.17,187.02 L174.20,186.84 L174.20,186.80 L174.18,186.65 L174.13,186.53 L174.06,186.43 L173.98,186.36 L173.82,186.29 L173.82,186.22 L173.98,186.14 L174.05,186.08 L174.12,185.98 L174.17,185.86 L174.18,185.71 L174.18,185.68 L174.16,185.50 L174.09,185.36 L173.98,185.24 L173.84,185.15 L173.66,185.09Z" />
<path spline_1deg="" d=" M175.07,185.96 L175.01,185.96 L175.01,185.77 L174.58,185.77 L174.58,187.47 L175.01,187.47 L175.01,186.51 L175.04,186.35 L175.12,186.24 L175.24,186.17 L175.39,186.15 L175.60,186.15 L175.60,185.76 L175.40,185.76 L175.29,185.78 L175.19,185.81 L175.12,185.87Z" />
<path spline_1deg="" d=" M176.71,187.52 L176.93,187.50 L177.10,187.45 L177.23,187.37 L177.34,187.27 L177.48,187.07 L177.13,186.89 L177.07,186.98 L177.00,187.06 L176.89,187.12 L176.73,187.14 L176.56,187.12 L176.43,187.03 L176.33,186.91 L176.30,186.75 L177.53,186.75 L177.53,186.60 L177.51,186.36 L177.43,186.14 L177.31,185.97 L177.14,185.84 L176.94,185.75 L176.71,185.72 L176.47,185.75 L176.26,185.83 L176.09,185.96 L175.96,186.14 L175.88,186.35 L175.86,186.60 L175.86,186.64 L175.88,186.89 L175.97,187.11 L176.09,187.28 L176.27,187.41 L176.48,187.49Z" />
<path spline_1deg="" d=" M178.40,185.98 L178.34,185.98 L178.34,185.77 L177.92,185.77 L177.92,188.16 L178.35,188.16 L178.35,187.28 L178.41,187.28 L178.51,187.39 L178.68,187.48 L178.80,187.51 L178.94,187.52 L179.14,187.49 L179.32,187.42 L179.48,187.29 L179.60,187.12 L179.68,186.91 L179.71,186.65 L179.71,186.59 L179.68,186.34 L179.60,186.12 L179.48,185.95 L179.32,185.82 L179.14,185.75 L178.94,185.72 L178.74,185.74 L178.59,185.80 L178.48,185.88Z" />
<path spline_1deg="" d=" M171.44,93.37 L170.20,93.37 L170.20,93.77 L170.52,93.77 L170.52,95.37 L170.20,95.37 L170.20,95.77 L171.45,95.77 L171.65,95.75 L171.83,95.69 L171.97,95.60 L172.08,95.48 L172.15,95.32 L172.18,95.14 L172.18,95.10 L172.16,94.95 L172.11,94.82 L172.04,94.73 L171.96,94.66 L171.80,94.58 L171.80,94.52 L171.96,94.44 L172.03,94.37 L172.10,94.28 L172.15,94.16 L172.16,94.01 L172.16,93.98 L172.14,93.80 L172.07,93.65 L171.96,93.53 L171.82,93.44 L171.64,93.39Z" />
<path spline_1deg="" d=" M173.21,95.80 L173.41,95.78 L173.55,95.71 L173.65,95.63 L173.71,95.55 L173.77,95.55 L173.77,95.77 L174.19,95.77 L174.19,94.07 L173.76,94.07 L173.76,94.93 L173.73,95.14 L173.65,95.30 L173.52,95.40 L173.34,95.43 L173.19,95.41 L173.07,95.34 L173.00,95.22 L172.98,95.05 L172.98,94.07 L172.55,94.07 L172.55,95.08 L172.57,95.28 L172.63,95.45 L172.73,95.60 L172.86,95.71 L173.02,95.77Z" />
<path spline_1deg="" d=" M174.67,94.07 L174.67,95.77 L175.11,95.77 L175.11,94.07Z" />
<path spline_1deg="" d=" M174.89,93.87 L175.00,93.85 L175.09,93.79 L175.15,93.71 L175.17,93.60 L175.15,93.48 L175.09,93.40 L175.00,93.34 L174.89,93.32 L174.78,93.34 L174.69,93.40 L174.63,93.48 L174.61,93.60 L174.63,93.71 L174.69,93.79 L174.78,93.85Z" />
<path spline_1deg="" d=" M175.59,93.37 L175.59,95.77 L176.02,95.77 L176.02,93.37Z" />
<path spline_1deg="" d=" M177.15,95.77 L177.63,95.77 L177.63,95.41 L177.30,95.41 L177.23,95.39 L177.20,95.31 L177.20,94.43 L177.67,94.43 L177.67,94.07 L177.20,94.07 L177.20,93.54 L176.77,93.54 L176.77,94.07 L176.35,94.07 L176.35,94.43 L176.77,94.43 L176.77,95.39 L176.80,95.54 L176.88,95.66 L177.00,95.74Z" />
<path spline_1deg="" d=" M178.92,93.37 L178.92,95.77 L180.48,95.77 L180.48,95.36 L179.37,95.36 L179.37,94.76 L180.36,94.76 L180.36,94.35 L179.37,94.35 L179.37,93.78 L180.46,93.78 L180.46,93.37Z" />
<path spline_1deg="" d=" M180.83,93.37 L180.83,95.77 L181.26,95.77 L181.26,93.37Z" />
<path spline_1deg="" d=" M182.52,95.82 L182.73,95.80 L182.90,95.74 L183.04,95.66 L183.14,95.57 L183.28,95.37 L182.93,95.19 L182.87,95.28 L182.80,95.36 L182.69,95.42 L182.53,95.44 L182.37,95.41 L182.23,95.33 L182.14,95.20 L182.10,95.05 L183.34,95.05 L183.34,94.90 L183.31,94.65 L183.23,94.44 L183.11,94.27 L182.95,94.13 L182.75,94.05 L182.51,94.02 L182.27,94.05 L182.07,94.13 L181.89,94.26 L181.77,94.43 L181.69,94.65 L181.66,94.90 L181.66,94.94 L181.69,95.19 L181.77,95.40 L181.90,95.58 L182.07,95.71 L182.28,95.79Z" />
<path spline_1deg="" d=" M184.21,94.25 L184.15,94.25 L184.15,94.07 L183.72,94.07 L183.72,95.77 L184.15,95.77 L184.15,94.76 L184.17,94.61 L184.23,94.50 L184.33,94.42 L184.46,94.40 L184.58,94.42 L184.66,94.47 L184.72,94.56 L184.74,94.68 L184.74,95.77 L185.17,95.77 L185.17,94.76 L185.19,94.61 L185.25,94.50 L185.35,94.42 L185.48,94.40 L185.59,94.42 L185.68,94.47 L185.73,94.56 L185.75,94.68 L185.75,95.77 L186.18,95.77 L186.18,94.65 L186.16,94.46 L186.11,94.31 L186.02,94.19 L185.90,94.11 L185.76,94.06 L185.61,94.04 L185.44,94.06 L185.31,94.11 L185.22,94.19 L185.15,94.30 L185.09,94.30 L185.01,94.19 L184.92,94.11 L184.79,94.06 L184.63,94.04 L184.47,94.06 L184.36,94.10 L184.27,94.17Z" />
<path spline_1deg="" d=" M187.42,95.82 L187.64,95.80 L187.81,95.74 L187.94,95.66 L188.05,95.57 L188.19,95.37 L187.84,95.19 L187.78,95.28 L187.71,95.36 L187.60,95.42 L187.44,95.44 L187.27,95.41 L187.14,95.33 L187.04,95.20 L187.01,95.05 L188.24,95.05 L188.24,94.90 L188.22,94.65 L188.14,94.44 L188.02,94.27 L187.85,94.13 L187.65,94.05 L187.42,94.02 L187.18,94.05 L186.97,94.13 L186.80,94.26 L186.67,94.43 L186.59,94.65 L186.57,94.90 L186.57,94.94 L186.59,95.19 L186.68,95.40 L186.80,95.58 L186.98,95.71 L187.19,95.79Z" />
<path spline_1deg="" d=" M189.11,94.29 L189.05,94.29 L189.05,94.07 L188.63,94.07 L188.63,95.77 L189.06,95.77 L189.06,94.91 L189.09,94.69 L189.17,94.54 L189.30,94.44 L189.48,94.40 L189.63,94.43 L189.75,94.50 L189.82,94.62 L189.84,94.79 L189.84,95.77 L190.27,95.77 L190.27,94.75 L190.25,94.56 L190.19,94.38 L190.09,94.24 L189.96,94.13 L189.80,94.06 L189.61,94.04 L189.41,94.06 L189.27,94.12 L189.17,94.20Z" />
<path spline_1deg="" d=" M191.39,95.77 L191.87,95.77 L191.87,95.41 L191.54,95.41 L191.47,95.39 L191.45,95.31 L191.45,94.43 L191.91,94.43 L191.91,94.07 L191.45,94.07 L191.45,93.54 L191.01,93.54 L191.01,94.07 L190.59,94.07 L190.59,94.43 L191.01,94.43 L191.01,95.39 L191.04,95.54 L191.12,95.66 L191.24,95.74Z" />
<path spline_1deg="" d=" M177.69,113.82 L178.01,116.22 L178.79,116.22 L179.10,114.09 L179.16,114.09 L179.47,116.22 L180.25,116.22 L180.57,113.82 L180.12,113.82 L179.89,115.90 L179.82,115.90 L179.52,113.82 L178.74,113.82 L178.44,115.90 L178.38,115.90 L178.14,113.82Z" />
<path spline_1deg="" d=" M181.44,116.27 L181.60,116.25 L181.72,116.22 L181.81,116.16 L181.87,116.10 L181.93,115.99 L182.00,115.99 L182.00,115.99 L182.02,116.09 L182.08,116.16 L182.17,116.20 L182.29,116.22 L182.58,116.22 L182.58,115.86 L182.44,115.86 L182.37,115.84 L182.34,115.76 L182.34,115.13 L182.33,114.98 L182.29,114.84 L182.23,114.73 L182.15,114.64 L182.04,114.57 L181.92,114.51 L181.78,114.48 L181.62,114.47 L181.41,114.49 L181.24,114.54 L181.11,114.62 L181.00,114.71 L180.92,114.83 L180.87,114.95 L181.27,115.08 L181.30,114.98 L181.37,114.89 L181.47,114.84 L181.61,114.82 L181.75,114.84 L181.85,114.90 L181.91,114.99 L181.93,115.10 L181.93,115.19 L181.46,115.19 L181.28,115.21 L181.12,115.25 L180.98,115.33 L180.88,115.43 L180.82,115.56 L180.80,115.72 L180.82,115.88 L180.88,116.02 L180.98,116.13 L181.11,116.20 L181.27,116.25Z" />
<path spline_1deg="" d=" M182.89,113.82 L182.89,116.22 L183.32,116.22 L183.32,113.82Z" />
<path spline_1deg="" d=" M183.80,113.82 L183.80,116.22 L184.24,116.22 L184.24,113.82Z" />
<path spline_1deg="" d=" M196.97,175.17 L196.97,177.57 L197.43,177.57 L197.43,176.57 L198.40,176.57 L198.40,176.16 L197.43,176.16 L197.43,175.58 L198.48,175.58 L198.48,175.17Z" />
<path spline_1deg="" d=" M199.35,177.62 L199.51,177.61 L199.63,177.57 L199.72,177.51 L199.78,177.45 L199.84,177.34 L199.90,177.34 L199.90,177.34 L199.93,177.44 L199.99,177.51 L200.08,177.55 L200.20,177.57 L200.48,177.57 L200.48,177.21 L200.35,177.21 L200.27,177.19 L200.25,177.11 L200.25,176.48 L200.24,176.33 L200.20,176.20 L200.14,176.08 L200.06,175.99 L199.95,175.92 L199.82,175.86 L199.68,175.83 L199.52,175.82 L199.32,175.84 L199.15,175.89 L199.01,175.97 L198.91,176.06 L198.83,176.18 L198.78,176.30 L199.17,176.44 L199.21,176.33 L199.28,176.25 L199.38,176.19 L199.52,176.17 L199.66,176.19 L199.76,176.25 L199.81,176.34 L199.83,176.45 L199.83,176.54 L199.37,176.54 L199.18,176.56 L199.03,176.60 L198.89,176.68 L198.79,176.78 L198.73,176.91 L198.71,177.07 L198.73,177.23 L198.79,177.37 L198.89,177.48 L199.02,177.55 L199.17,177.60Z" />
<path spline_1deg="" d=" M201.82,177.62 L202.02,177.59 L202.20,177.52 L202.36,177.39 L202.48,177.22 L202.56,177.00 L202.59,176.75 L202.59,176.69 L202.56,176.44 L202.48,176.22 L202.36,176.05 L202.20,175.92 L202.02,175.85 L201.82,175.82 L201.68,175.83 L201.56,175.86 L201.39,175.95 L201.29,176.07 L201.23,176.07 L201.23,175.17 L200.80,175.17 L200.80,177.57 L201.22,177.57 L201.22,177.36 L201.29,177.36 L201.36,177.46 L201.47,177.54 L201.62,177.60Z" />
<path spline_1deg="" d=" M203.47,176.06 L203.41,176.06 L203.41,175.87 L202.99,175.87 L202.99,177.57 L203.42,177.57 L203.42,176.60 L203.45,176.45 L203.53,176.33 L203.65,176.27 L203.80,176.25 L204.01,176.25 L204.01,175.86 L203.80,175.86 L203.69,175.87 L203.60,175.91 L203.52,175.97Z" />
<path spline_1deg="" d=" M204.34,175.87 L204.34,177.57 L204.78,177.57 L204.78,175.87Z" />
<path spline_1deg="" d=" M204.56,175.67 L204.67,175.65 L204.76,175.60 L204.82,175.51 L204.84,175.40 L204.82,175.29 L204.76,175.20 L204.67,175.14 L204.56,175.12 L204.45,175.14 L204.36,175.20 L204.30,175.29 L204.28,175.40 L204.30,175.51 L204.36,175.60 L204.45,175.65Z" />
<path spline_1deg="" d=" M206.06,177.62 L206.28,177.60 L206.47,177.53 L206.63,177.43 L206.76,177.30 L206.85,177.14 L206.91,176.97 L206.49,176.87 L206.44,177.02 L206.36,177.13 L206.24,177.21 L206.07,177.23 L205.94,177.22 L205.83,177.18 L205.74,177.11 L205.67,177.01 L205.62,176.89 L205.61,176.74 L205.61,176.70 L205.62,176.55 L205.67,176.43 L205.74,176.33 L205.83,176.26 L205.94,176.22 L206.07,176.21 L206.19,176.22 L206.28,176.25 L206.36,176.31 L206.42,176.38 L206.48,176.57 L206.90,176.48 L206.85,176.30 L206.76,176.14 L206.63,176.01 L206.47,175.91 L206.28,175.84 L206.06,175.82 L205.82,175.85 L205.61,175.92 L205.43,176.05 L205.29,176.22 L205.20,176.44 L205.17,176.70 L205.17,176.74 L205.20,177.00 L205.29,177.22 L205.43,177.39 L205.61,177.52 L205.82,177.59Z" />
<path spline_1deg="" d=" M207.79,177.62 L207.95,177.61 L208.07,177.57 L208.16,177.51 L208.23,177.45 L208.29,177.34 L208.35,177.34 L208.35,177.34 L208.37,177.44 L208.43,177.51 L208.53,177.55 L208.64,177.57 L208.93,177.57 L208.93,177.21 L208.79,177.21 L208.72,177.19 L208.70,177.11 L208.70,176.48 L208.69,176.33 L208.65,176.20 L208.59,176.08 L208.50,175.99 L208.40,175.92 L208.27,175.86 L208.13,175.83 L207.97,175.82 L207.77,175.84 L207.60,175.89 L207.46,175.97 L207.36,176.06 L207.28,176.18 L207.22,176.30 L207.62,176.44 L207.66,176.33 L207.73,176.25 L207.82,176.19 L207.97,176.17 L208.11,176.19 L208.21,176.25 L208.26,176.34 L208.28,176.45 L208.28,176.54 L207.81,176.54 L207.63,176.56 L207.47,176.60 L207.34,176.68 L207.24,176.78 L207.18,176.91 L207.16,177.07 L207.18,177.23 L207.24,177.37 L207.34,177.48 L207.47,177.55 L207.62,177.60Z" />
<path spline_1deg="" d=" M209.90,177.57 L210.38,177.57 L210.38,177.21 L210.05,177.21 L209.98,177.19 L209.95,177.11 L209.95,176.23 L210.42,176.23 L210.42,175.87 L209.95,175.87 L209.95,175.34 L209.52,175.34 L209.52,175.87 L209.10,175.87 L209.10,176.23 L209.52,176.23 L209.52,177.19 L209.55,177.34 L209.63,177.47 L209.75,177.54Z" />
<path spline_1deg="" d=" M210.81,175.87 L210.81,177.57 L211.24,177.57 L211.24,175.87Z" />
<path spline_1deg="" d=" M211.03,175.67 L211.14,175.65 L211.23,175.60 L211.28,175.51 L211.30,175.40 L211.28,175.29 L211.23,175.20 L211.14,175.14 L211.03,175.12 L210.92,175.14 L210.83,175.20 L210.77,175.29 L210.75,175.40 L210.77,175.51 L210.83,175.60 L210.92,175.65Z" />
<path spline_1deg="" d=" M212.53,177.62 L212.77,177.59 L212.99,177.52 L213.17,177.39 L213.31,177.22 L213.39,177.00 L213.42,176.75 L213.42,176.69 L213.39,176.44 L213.31,176.22 L213.17,176.05 L212.99,175.92 L212.77,175.85 L212.53,175.82 L212.29,175.85 L212.08,175.92 L211.90,176.05 L211.76,176.22 L211.67,176.44 L211.64,176.69 L211.64,176.75 L211.67,177.00 L211.76,177.22 L211.90,177.39 L212.08,177.52 L212.29,177.59Z" />
<path spline_1deg="" d=" M214.31,176.09 L214.25,176.09 L214.25,175.87 L213.82,175.87 L213.82,177.57 L214.25,177.57 L214.25,176.71 L214.28,176.50 L214.36,176.34 L214.49,176.24 L214.67,176.21 L214.83,176.23 L214.94,176.30 L215.01,176.42 L215.03,176.59 L215.03,177.57 L215.47,177.57 L215.47,176.56 L215.45,176.36 L215.38,176.18 L215.29,176.04 L215.15,175.93 L214.99,175.86 L214.81,175.84 L214.60,175.86 L214.46,175.92 L214.37,176.01Z" />
<path spline_1deg="" d=" M216.79,175.17 L216.79,177.57 L217.23,177.57 L217.23,175.50 L217.29,175.50 L217.70,177.57 L218.45,177.57 L218.86,175.50 L218.92,175.50 L218.92,177.57 L219.36,177.57 L219.36,175.17 L218.52,175.17 L218.11,177.26 L218.05,177.26 L217.63,175.17Z" />
<path spline_1deg="" d=" M220.64,177.62 L220.88,177.59 L221.09,177.52 L221.27,177.39 L221.41,177.22 L221.50,177.00 L221.53,176.75 L221.53,176.69 L221.50,176.44 L221.41,176.22 L221.27,176.05 L221.09,175.92 L220.88,175.85 L220.64,175.82 L220.40,175.85 L220.18,175.92 L220.00,176.05 L219.86,176.22 L219.77,176.44 L219.75,176.69 L219.75,176.75 L219.77,177.00 L219.86,177.22 L220.00,177.39 L220.18,177.52 L220.40,177.59Z" />
<path spline_1deg="" d=" M222.61,177.62 L222.82,177.60 L222.97,177.54 L223.07,177.46 L223.15,177.36 L223.21,177.36 L223.21,177.57 L223.63,177.57 L223.63,175.17 L223.20,175.17 L223.20,176.07 L223.14,176.07 L223.04,175.95 L222.87,175.86 L222.75,175.83 L222.61,175.82 L222.41,175.85 L222.23,175.92 L222.07,176.05 L221.95,176.22 L221.87,176.44 L221.84,176.69 L221.84,176.75 L221.87,177.00 L221.95,177.22 L222.07,177.39 L222.23,177.52 L222.42,177.59Z" />
<path spline_1deg="" d=" M224.89,177.62 L225.10,177.60 L225.27,177.54 L225.41,177.46 L225.51,177.37 L225.65,177.17 L225.30,176.99 L225.25,177.08 L225.17,177.16 L225.06,177.22 L224.90,177.24 L224.74,177.21 L224.60,177.13 L224.51,177.01 L224.47,176.85 L225.71,176.85 L225.71,176.70 L225.68,176.45 L225.61,176.24 L225.48,176.07 L225.32,175.93 L225.12,175.85 L224.88,175.82 L224.64,175.85 L224.44,175.93 L224.27,176.06 L224.14,176.23 L224.06,176.45 L224.03,176.70 L224.03,176.74 L224.06,176.99 L224.14,177.21 L224.27,177.38 L224.44,177.51 L224.65,177.59Z" />
<path spline_1deg="" d=" M226.09,175.17 L226.09,177.57 L226.52,177.57 L226.52,175.17Z" />
<path spline_1deg="" d=" M142.02,175.17 L141.03,175.17 L141.03,177.57 L141.48,177.57 L141.48,176.69 L142.02,176.69 L142.22,176.67 L142.41,176.60 L142.56,176.49 L142.68,176.34 L142.76,176.16 L142.78,175.96 L142.78,175.91 L142.76,175.70 L142.69,175.52 L142.57,175.37 L142.42,175.26 L142.23,175.19Z" />
<path spline_1deg="" d=" M143.92,177.62 L144.16,177.59 L144.38,177.52 L144.56,177.39 L144.70,177.22 L144.79,177.00 L144.81,176.75 L144.81,176.69 L144.79,176.44 L144.70,176.22 L144.56,176.05 L144.38,175.92 L144.16,175.85 L143.92,175.82 L143.68,175.85 L143.47,175.92 L143.29,176.05 L143.15,176.22 L143.06,176.44 L143.03,176.69 L143.03,176.75 L143.06,177.00 L143.15,177.22 L143.29,177.39 L143.47,177.52 L143.68,177.59Z" />
<path spline_1deg="" d=" M145.21,175.87 L145.21,177.57 L145.64,177.57 L145.64,175.87Z" />
<path spline_1deg="" d=" M145.43,175.67 L145.54,175.65 L145.63,175.60 L145.69,175.51 L145.71,175.40 L145.69,175.29 L145.63,175.20 L145.54,175.14 L145.43,175.12 L145.32,175.14 L145.23,175.20 L145.17,175.29 L145.15,175.40 L145.17,175.51 L145.23,175.60 L145.32,175.65Z" />
<path spline_1deg="" d=" M146.61,176.09 L146.55,176.09 L146.55,175.87 L146.12,175.87 L146.12,177.57 L146.56,177.57 L146.56,176.71 L146.58,176.50 L146.67,176.34 L146.80,176.24 L146.97,176.21 L147.13,176.23 L147.24,176.30 L147.31,176.42 L147.34,176.59 L147.34,177.57 L147.77,177.57 L147.77,176.56 L147.75,176.36 L147.69,176.18 L147.59,176.04 L147.46,175.93 L147.29,175.86 L147.11,175.84 L146.91,175.86 L146.77,175.92 L146.67,176.01Z" />
<path spline_1deg="" d=" M148.89,177.57 L149.37,177.57 L149.37,177.21 L149.04,177.21 L148.97,177.19 L148.94,177.11 L148.94,176.23 L149.41,176.23 L149.41,175.87 L148.94,175.87 L148.94,175.34 L148.51,175.34 L148.51,175.87 L148.09,175.87 L148.09,176.23 L148.51,176.23 L148.51,177.19 L148.54,177.34 L148.61,177.47 L148.74,177.54Z" />
<path spline_1deg="" d=" M151.57,177.62 L151.78,177.60 L151.96,177.56 L152.12,177.48 L152.25,177.38 L152.36,177.24 L152.43,177.09 L152.48,176.91 L152.49,176.71 L152.49,176.67 L152.05,176.67 L152.05,176.73 L152.02,176.92 L151.93,177.07 L151.86,177.14 L151.78,177.18 L151.57,177.21 L151.45,177.20 L151.35,177.18 L151.27,177.13 L151.19,177.06 L151.13,176.98 L151.09,176.89 L151.05,176.67 L151.05,176.08 L151.09,175.85 L151.13,175.75 L151.19,175.67 L151.27,175.61 L151.35,175.56 L151.45,175.54 L151.57,175.53 L151.78,175.56 L151.86,175.60 L151.93,175.66 L152.02,175.82 L152.05,176.01 L152.05,176.05 L152.49,176.05 L152.49,176.03 L152.48,175.83 L152.43,175.65 L152.36,175.50 L152.25,175.36 L152.12,175.26 L151.96,175.18 L151.78,175.14 L151.57,175.12 L151.36,175.14 L151.17,175.18 L151.00,175.26 L150.86,175.37 L150.75,175.51 L150.67,175.67 L150.62,175.86 L150.60,176.08 L150.60,176.66 L150.62,176.88 L150.67,177.07 L150.75,177.23 L150.86,177.37 L151.00,177.48 L151.17,177.56 L151.36,177.60Z" />
<path spline_1deg="" d=" M152.88,175.17 L152.88,177.57 L153.31,177.57 L153.31,175.17Z" />
<path spline_1deg="" d=" M154.60,177.62 L154.84,177.59 L155.06,177.52 L155.24,177.39 L155.37,177.22 L155.46,177.00 L155.49,176.75 L155.49,176.69 L155.46,176.44 L155.37,176.22 L155.24,176.05 L155.06,175.92 L154.84,175.85 L154.60,175.82 L154.36,175.85 L154.14,175.92 L153.96,176.05 L153.82,176.22 L153.74,176.44 L153.71,176.69 L153.71,176.75 L153.74,177.00 L153.82,177.22 L153.96,177.39 L154.14,177.52 L154.36,177.59Z" />
<path spline_1deg="" d=" M156.54,177.60 L156.74,177.58 L156.88,177.52 L156.97,177.43 L157.03,177.35 L157.10,177.35 L157.10,177.57 L157.52,177.57 L157.52,175.87 L157.09,175.87 L157.09,176.73 L157.06,176.94 L156.98,177.10 L156.85,177.20 L156.67,177.23 L156.52,177.21 L156.40,177.14 L156.33,177.02 L156.31,176.85 L156.31,175.87 L155.87,175.87 L155.87,176.88 L155.90,177.08 L155.96,177.25 L156.06,177.40 L156.19,177.51 L156.35,177.57Z" />
<path spline_1deg="" d=" M158.69,177.62 L158.89,177.60 L159.04,177.54 L159.15,177.46 L159.22,177.36 L159.28,177.36 L159.28,177.57 L159.71,177.57 L159.71,175.17 L159.28,175.17 L159.28,176.07 L159.21,176.07 L159.11,175.95 L158.95,175.86 L158.83,175.83 L158.69,175.82 L158.49,175.85 L158.31,175.92 L158.15,176.05 L158.02,176.22 L157.94,176.44 L157.92,176.69 L157.92,176.75 L157.94,177.00 L158.02,177.22 L158.15,177.39 L158.31,177.52 L158.49,177.59Z" />
<path spline_1deg="" d=" M170.43,133.67 L168.57,133.67 L168.57,134.27 L169.05,134.27 L169.05,136.67 L168.57,136.67 L168.57,137.27 L170.45,137.27 L170.75,137.24 L171.01,137.16 L171.23,137.02 L171.40,136.83 L171.46,136.72 L171.50,136.60 L171.54,136.32 L171.54,136.27 L171.51,136.03 L171.44,135.85 L171.34,135.71 L171.21,135.61 L171.08,135.53 L170.97,135.49 L170.97,135.40 L171.21,135.28 L171.32,135.17 L171.42,135.04 L171.49,134.86 L171.52,134.63 L171.52,134.58 L171.48,134.32 L171.38,134.09 L171.22,133.91 L171.00,133.78 L170.73,133.70Z" />
<path spline_1deg="" d=" M172.11,133.67 L172.11,137.27 L172.76,137.27 L172.76,133.67Z" />
<path spline_1deg="" d=" M174.69,137.34 L174.88,137.33 L175.06,137.30 L175.22,137.26 L175.38,137.19 L175.52,137.10 L175.65,137.00 L175.76,136.88 L175.86,136.74 L175.93,136.59 L175.99,136.42 L176.02,136.23 L176.03,136.04 L176.03,135.95 L176.02,135.75 L175.99,135.57 L175.93,135.40 L175.86,135.25 L175.76,135.11 L175.65,134.99 L175.52,134.89 L175.38,134.80 L175.22,134.73 L175.06,134.69 L174.88,134.66 L174.51,134.66 L174.33,134.69 L174.17,134.73 L174.01,134.80 L173.87,134.89 L173.74,134.99 L173.63,135.11 L173.53,135.25 L173.46,135.40 L173.40,135.57 L173.37,135.75 L173.36,135.95 L173.36,136.04 L173.37,136.23 L173.40,136.42 L173.46,136.59 L173.53,136.74 L173.63,136.88 L173.74,137.00 L173.87,137.10 L174.01,137.19 L174.17,137.26 L174.33,137.30 L174.51,137.33Z" />
<path spline_1deg="" d=" M177.83,137.34 L178.17,137.31 L178.45,137.21 L178.69,137.06 L178.88,136.86 L179.02,136.63 L179.11,136.36 L178.48,136.22 L178.41,136.44 L178.29,136.61 L178.20,136.68 L178.10,136.73 L177.98,136.76 L177.84,136.77 L177.66,136.74 L177.49,136.68 L177.35,136.58 L177.24,136.43 L177.18,136.24 L177.15,136.02 L177.15,135.97 L177.18,135.75 L177.24,135.56 L177.35,135.41 L177.49,135.31 L177.66,135.24 L177.84,135.22 L178.02,135.24 L178.17,135.29 L178.29,135.38 L178.37,135.49 L178.43,135.62 L178.46,135.77 L179.09,135.63 L179.01,135.37 L178.88,135.13 L178.69,134.93 L178.45,134.78 L178.17,134.68 L177.83,134.65 L177.65,134.66 L177.47,134.69 L177.31,134.73 L177.16,134.80 L177.01,134.89 L176.89,134.99 L176.78,135.11 L176.68,135.25 L176.60,135.40 L176.55,135.57 L176.52,135.76 L176.50,135.96 L176.50,136.03 L176.52,136.23 L176.55,136.42 L176.60,136.59 L176.68,136.74 L176.78,136.88 L176.89,137.00 L177.01,137.10 L177.16,137.19 L177.31,137.26 L177.47,137.30 L177.65,137.33Z" />
<path spline_1deg="" d=" M179.64,133.67 L179.64,137.27 L180.29,137.27 L180.29,136.26 L180.38,136.26 L181.28,137.27 L182.11,137.27 L180.89,135.95 L182.07,134.72 L181.23,134.72 L180.38,135.66 L180.29,135.66 L180.29,133.67Z" />
<path spline_1deg="" d=" M183.64,133.67 L184.12,137.27 L185.29,137.27 L185.75,134.07 L185.84,134.07 L186.31,137.27 L187.48,137.27 L187.95,133.67 L187.28,133.67 L186.93,136.80 L186.84,136.80 L186.38,133.67 L185.21,133.67 L184.76,136.80 L184.67,136.80 L184.32,133.67Z" />
<path spline_1deg="" d=" M189.26,137.34 L189.50,137.32 L189.68,137.26 L189.81,137.18 L189.91,137.09 L190.00,136.93 L190.10,136.93 L190.10,136.93 L190.13,137.07 L190.22,137.18 L190.36,137.25 L190.53,137.27 L190.97,137.27 L190.97,136.73 L190.76,136.73 L190.70,136.73 L190.65,136.70 L190.63,136.65 L190.62,136.58 L190.62,135.63 L190.60,135.40 L190.54,135.21 L190.45,135.04 L190.32,134.90 L190.16,134.79 L189.98,134.71 L189.77,134.66 L189.53,134.65 L189.22,134.67 L188.97,134.75 L188.76,134.86 L188.60,135.01 L188.49,135.18 L188.41,135.37 L189.00,135.57 L189.06,135.41 L189.16,135.28 L189.31,135.20 L189.52,135.17 L189.73,135.20 L189.81,135.24 L189.88,135.29 L189.96,135.42 L189.99,135.58 L189.99,135.73 L189.29,135.73 L189.02,135.75 L188.78,135.82 L188.58,135.93 L188.43,136.08 L188.33,136.28 L188.30,136.52 L188.33,136.77 L188.43,136.97 L188.58,137.13 L188.77,137.25 L189.00,137.32Z" />
<path spline_1deg="" d=" M191.44,133.67 L191.44,137.27 L192.09,137.27 L192.09,133.67Z" />
<path spline_1deg="" d=" M192.81,133.67 L192.81,137.27 L193.46,137.27 L193.46,133.67Z" />
<path spline_1deg="" d=" M254.10,73.65 L253.06,73.65 L253.06,76.05 L253.51,76.05 L253.51,75.15 L254.14,75.15 L254.23,75.16 L254.28,75.20 L254.32,75.26 L254.33,75.33 L254.33,76.05 L254.78,76.05 L254.78,75.27 L254.76,75.14 L254.70,75.04 L254.61,74.97 L254.49,74.94 L254.49,74.88 L254.63,74.80 L254.75,74.69 L254.82,74.53 L254.85,74.34 L254.85,74.29 L254.83,74.11 L254.76,73.96 L254.64,73.83 L254.50,73.73 L254.31,73.67Z" />
<path spline_1deg="" d=" M256.01,76.10 L256.23,76.08 L256.40,76.03 L256.53,75.95 L256.64,75.85 L256.78,75.66 L256.43,75.47 L256.37,75.56 L256.30,75.65 L256.19,75.70 L256.03,75.72 L255.86,75.70 L255.73,75.61 L255.63,75.49 L255.60,75.33 L256.83,75.33 L256.83,75.18 L256.81,74.94 L256.73,74.72 L256.61,74.55 L256.44,74.42 L256.24,74.33 L256.01,74.30 L255.77,74.33 L255.56,74.41 L255.39,74.54 L255.26,74.72 L255.18,74.93 L255.16,75.18 L255.16,75.22 L255.18,75.47 L255.26,75.69 L255.39,75.86 L255.57,75.99 L255.78,76.07Z" />
<path spline_1deg="" d=" M257.03,74.35 L257.57,76.05 L258.26,76.05 L258.80,74.35 L258.34,74.35 L257.95,75.74 L257.89,75.74 L257.49,74.35Z" />
<path spline_1deg="" d=" M259.10,74.35 L259.10,76.05 L259.53,76.05 L259.53,74.35Z" />
<path spline_1deg="" d=" M259.31,74.15 L259.42,74.14 L259.51,74.08 L259.57,73.99 L259.59,73.88 L259.57,73.77 L259.51,73.68 L259.42,73.62 L259.31,73.61 L259.20,73.62 L259.12,73.68 L259.05,73.77 L259.03,73.88 L259.05,73.99 L259.12,74.08 L259.20,74.14Z" />
<path spline_1deg="" d=" M260.66,76.05 L261.14,76.05 L261.14,75.70 L260.81,75.70 L260.74,75.67 L260.71,75.59 L260.71,74.71 L261.18,74.71 L261.18,74.35 L260.71,74.35 L260.71,73.82 L260.28,73.82 L260.28,74.35 L259.86,74.35 L259.86,74.71 L260.28,74.71 L260.28,75.67 L260.31,75.83 L260.39,75.95 L260.51,76.03Z" />
<path spline_1deg="" d=" M262.43,73.65 L262.43,76.05 L262.88,76.05 L262.88,75.06 L263.86,75.06 L263.86,74.64 L262.88,74.64 L262.88,74.06 L263.94,74.06 L263.94,73.65Z" />
<path spline_1deg="" d=" M264.80,76.10 L264.96,76.09 L265.08,76.05 L265.17,75.99 L265.23,75.93 L265.30,75.82 L265.36,75.82 L265.36,75.83 L265.38,75.92 L265.44,75.99 L265.54,76.04 L265.65,76.05 L265.94,76.05 L265.94,75.70 L265.80,75.70 L265.73,75.67 L265.71,75.59 L265.71,74.96 L265.69,74.81 L265.66,74.68 L265.60,74.57 L265.51,74.47 L265.40,74.40 L265.28,74.35 L265.14,74.32 L264.98,74.30 L264.78,74.32 L264.61,74.37 L264.47,74.45 L264.36,74.55 L264.29,74.66 L264.23,74.78 L264.63,74.92 L264.67,74.81 L264.73,74.73 L264.83,74.67 L264.97,74.65 L265.12,74.67 L265.21,74.73 L265.27,74.82 L265.29,74.93 L265.29,75.02 L264.82,75.02 L264.64,75.04 L264.48,75.08 L264.35,75.16 L264.25,75.26 L264.18,75.40 L264.16,75.56 L264.18,75.72 L264.25,75.85 L264.35,75.96 L264.48,76.04 L264.63,76.09Z" />
<path spline_1deg="" d=" M266.74,74.54 L266.68,74.54 L266.68,74.35 L266.26,74.35 L266.26,76.05 L266.69,76.05 L266.69,75.05 L266.71,74.89 L266.77,74.78 L266.87,74.71 L267.00,74.69 L267.11,74.70 L267.20,74.76 L267.25,74.84 L267.27,74.97 L267.27,76.05 L267.70,76.05 L267.70,75.05 L267.72,74.89 L267.78,74.78 L267.88,74.71 L268.01,74.69 L268.13,74.70 L268.21,74.76 L268.27,74.84 L268.28,74.97 L268.28,76.05 L268.72,76.05 L268.72,74.94 L268.70,74.75 L268.64,74.59 L268.55,74.48 L268.43,74.39 L268.30,74.34 L268.15,74.33 L267.97,74.34 L267.85,74.40 L267.75,74.48 L267.68,74.58 L267.62,74.58 L267.55,74.48 L267.45,74.40 L267.32,74.34 L267.16,74.33 L267.01,74.34 L266.89,74.39 L266.80,74.46Z" />
<path spline_1deg="" d=" M269.18,74.35 L269.18,76.05 L269.62,76.05 L269.62,74.35Z" />
<path spline_1deg="" d=" M269.40,74.15 L269.51,74.14 L269.60,74.08 L269.66,73.99 L269.68,73.88 L269.66,73.77 L269.60,73.68 L269.51,73.62 L269.40,73.61 L269.29,73.62 L269.20,73.68 L269.14,73.77 L269.12,73.88 L269.14,73.99 L269.20,74.08 L269.29,74.14Z" />
<path spline_1deg="" d=" M270.10,73.65 L270.10,76.05 L270.53,76.05 L270.53,73.65Z" />
<path spline_1deg="" d=" M272.12,76.36 L271.19,76.36 L271.19,76.74 L272.26,76.74 L272.42,76.71 L272.54,76.63 L272.61,76.51 L272.64,76.36 L272.64,74.35 L272.21,74.35 L272.21,75.22 L272.18,75.43 L272.10,75.59 L271.97,75.68 L271.79,75.72 L271.63,75.69 L271.52,75.62 L271.45,75.50 L271.43,75.33 L271.43,74.35 L270.99,74.35 L270.99,75.37 L271.01,75.56 L271.08,75.74 L271.17,75.88 L271.31,75.99 L271.47,76.06 L271.66,76.08 L271.80,76.07 L271.91,76.04 L272.07,75.95 L272.15,75.83 L272.21,75.83 L272.21,76.26 L272.19,76.34Z" />
<path spline_1deg="" d=" M255.09,53.20 L254.05,53.20 L254.05,55.60 L254.50,55.60 L254.50,54.70 L255.13,54.70 L255.21,54.71 L255.27,54.75 L255.30,54.81 L255.31,54.88 L255.31,55.60 L255.77,55.60 L255.77,54.82 L255.75,54.69 L255.69,54.59 L255.60,54.52 L255.48,54.49 L255.48,54.43 L255.62,54.35 L255.73,54.24 L255.81,54.08 L255.83,53.89 L255.83,53.84 L255.81,53.66 L255.74,53.50 L255.63,53.38 L255.48,53.28 L255.30,53.22Z" />
<path spline_1deg="" d=" M256.72,54.11 L256.66,54.11 L256.66,53.20 L256.23,53.20 L256.23,55.60 L256.66,55.60 L256.66,54.74 L256.69,54.53 L256.77,54.37 L256.90,54.27 L257.08,54.24 L257.23,54.26 L257.35,54.33 L257.42,54.45 L257.44,54.62 L257.44,55.60 L257.87,55.60 L257.87,54.59 L257.85,54.39 L257.79,54.22 L257.69,54.07 L257.56,53.97 L257.40,53.90 L257.21,53.88 L257.07,53.88 L256.96,53.91 L256.81,54.00Z" />
<path spline_1deg="" d=" M258.34,53.90 L258.34,55.60 L258.77,55.60 L258.77,53.90Z" />
<path spline_1deg="" d=" M258.55,53.70 L258.66,53.68 L258.75,53.63 L258.81,53.54 L258.83,53.43 L258.81,53.32 L258.75,53.23 L258.66,53.17 L258.55,53.16 L258.45,53.17 L258.36,53.23 L258.30,53.32 L258.28,53.43 L258.30,53.54 L258.36,53.63 L258.45,53.68Z" />
<path spline_1deg="" d=" M259.74,54.13 L259.67,54.13 L259.67,53.90 L259.25,53.90 L259.25,55.60 L259.68,55.60 L259.68,54.74 L259.71,54.53 L259.79,54.37 L259.92,54.27 L260.10,54.24 L260.25,54.26 L260.37,54.33 L260.44,54.45 L260.46,54.62 L260.46,55.60 L260.90,55.60 L260.90,54.59 L260.87,54.39 L260.81,54.22 L260.71,54.07 L260.58,53.97 L260.42,53.90 L260.23,53.88 L260.03,53.90 L259.89,53.96 L259.80,54.04Z" />
<path spline_1deg="" d=" M262.17,55.65 L262.41,55.63 L262.63,55.55 L262.81,55.42 L262.95,55.25 L263.03,55.03 L263.06,54.78 L263.06,54.73 L263.03,54.47 L262.95,54.26 L262.81,54.08 L262.63,53.96 L262.41,53.88 L262.17,53.85 L261.93,53.88 L261.71,53.96 L261.53,54.08 L261.40,54.26 L261.31,54.47 L261.28,54.73 L261.28,54.78 L261.31,55.03 L261.40,55.25 L261.53,55.42 L261.71,55.55 L261.93,55.63Z" />
<path spline_1deg="" d=" M265.48,53.20 L264.25,53.20 L264.25,53.60 L264.56,53.60 L264.56,55.21 L264.25,55.21 L264.25,55.60 L265.50,55.60 L265.70,55.58 L265.88,55.53 L266.02,55.44 L266.13,55.31 L266.20,55.15 L266.22,54.97 L266.22,54.93 L266.21,54.78 L266.16,54.66 L266.09,54.56 L266.01,54.49 L265.84,54.42 L265.84,54.36 L266.00,54.27 L266.08,54.21 L266.15,54.11 L266.19,53.99 L266.21,53.84 L266.21,53.81 L266.19,53.63 L266.12,53.49 L266.01,53.37 L265.87,53.28 L265.69,53.22Z" />
<path spline_1deg="" d=" M267.09,54.09 L267.03,54.09 L267.03,53.90 L266.61,53.90 L266.61,55.60 L267.04,55.60 L267.04,54.64 L267.07,54.48 L267.15,54.37 L267.27,54.30 L267.42,54.28 L267.63,54.28 L267.63,53.90 L267.42,53.90 L267.31,53.91 L267.22,53.94 L267.14,54.01Z" />
<path spline_1deg="" d=" M268.74,55.65 L268.95,55.63 L269.12,55.58 L269.26,55.50 L269.37,55.40 L269.50,55.21 L269.15,55.02 L269.10,55.11 L269.02,55.20 L268.91,55.25 L268.75,55.27 L268.59,55.25 L268.45,55.16 L268.36,55.04 L268.32,54.88 L269.56,54.88 L269.56,54.73 L269.53,54.49 L269.46,54.27 L269.33,54.10 L269.17,53.97 L268.97,53.88 L268.73,53.85 L268.49,53.88 L268.29,53.96 L268.12,54.09 L267.99,54.27 L267.91,54.48 L267.88,54.73 L267.88,54.77 L267.91,55.02 L267.99,55.24 L268.12,55.41 L268.29,55.54 L268.50,55.62Z" />
<path spline_1deg="" d=" M270.43,54.11 L270.37,54.11 L270.37,53.90 L269.94,53.90 L269.94,56.29 L270.38,56.29 L270.38,55.41 L270.44,55.41 L270.54,55.52 L270.71,55.62 L270.82,55.64 L270.97,55.65 L271.16,55.63 L271.35,55.55 L271.50,55.43 L271.63,55.25 L271.71,55.04 L271.73,54.78 L271.73,54.73 L271.71,54.47 L271.63,54.25 L271.50,54.08 L271.35,53.96 L271.16,53.88 L270.97,53.85 L270.76,53.87 L270.61,53.93 L270.50,54.01Z" />
<path spline_1deg="" d=" M84.50,94.10 L84.50,96.50 L84.95,96.50 L84.95,95.51 L85.92,95.51 L85.92,95.09 L84.95,95.09 L84.95,94.51 L86.01,94.51 L86.01,94.10Z" />
<path spline_1deg="" d=" M86.87,96.55 L87.03,96.54 L87.15,96.50 L87.24,96.44 L87.30,96.38 L87.36,96.27 L87.43,96.27 L87.43,96.28 L87.45,96.37 L87.51,96.44 L87.60,96.49 L87.72,96.50 L88.01,96.50 L88.01,96.15 L87.87,96.15 L87.80,96.12 L87.77,96.04 L87.77,95.41 L87.76,95.26 L87.73,95.13 L87.66,95.02 L87.58,94.92 L87.47,94.85 L87.35,94.80 L87.21,94.77 L87.05,94.75 L86.85,94.77 L86.68,94.82 L86.54,94.90 L86.43,95.00 L86.35,95.11 L86.30,95.23 L86.70,95.37 L86.74,95.26 L86.80,95.18 L86.90,95.12 L87.04,95.10 L87.18,95.12 L87.28,95.18 L87.34,95.27 L87.36,95.38 L87.36,95.47 L86.89,95.47 L86.71,95.49 L86.55,95.53 L86.42,95.61 L86.32,95.71 L86.25,95.85 L86.23,96.01 L86.25,96.17 L86.32,96.30 L86.41,96.41 L86.54,96.49 L86.70,96.54Z" />
<path spline_1deg="" d=" M89.34,96.55 L89.54,96.53 L89.73,96.45 L89.88,96.33 L90.01,96.15 L90.09,95.94 L90.11,95.68 L90.11,95.63 L90.09,95.37 L90.01,95.15 L89.88,94.98 L89.73,94.86 L89.54,94.78 L89.34,94.75 L89.20,94.76 L89.09,94.79 L88.92,94.88 L88.82,95.00 L88.76,95.00 L88.76,94.10 L88.32,94.10 L88.32,96.50 L88.75,96.50 L88.75,96.30 L88.81,96.30 L88.88,96.39 L88.99,96.47 L89.14,96.53Z" />
<path spline_1deg="" d=" M91.00,94.99 L90.94,94.99 L90.94,94.80 L90.51,94.80 L90.51,96.50 L90.94,96.50 L90.94,95.54 L90.97,95.38 L91.05,95.27 L91.17,95.20 L91.32,95.18 L91.53,95.18 L91.53,94.80 L91.33,94.80 L91.22,94.81 L91.12,94.84 L91.05,94.91Z" />
<path spline_1deg="" d=" M91.87,94.80 L91.87,96.50 L92.30,96.50 L92.30,94.80Z" />
<path spline_1deg="" d=" M92.08,94.60 L92.19,94.59 L92.28,94.53 L92.34,94.44 L92.36,94.33 L92.34,94.22 L92.28,94.13 L92.19,94.07 L92.08,94.06 L91.98,94.07 L91.89,94.13 L91.83,94.22 L91.81,94.33 L91.83,94.44 L91.89,94.53 L91.98,94.59Z" />
<path spline_1deg="" d=" M93.58,96.55 L93.81,96.53 L94.00,96.47 L94.16,96.36 L94.28,96.23 L94.37,96.07 L94.43,95.90 L94.01,95.80 L93.97,95.95 L93.89,96.07 L93.76,96.14 L93.59,96.17 L93.47,96.15 L93.35,96.11 L93.26,96.04 L93.19,95.94 L93.15,95.82 L93.13,95.67 L93.13,95.64 L93.15,95.49 L93.19,95.36 L93.26,95.27 L93.35,95.20 L93.47,95.15 L93.59,95.14 L93.71,95.15 L93.81,95.19 L93.88,95.24 L93.94,95.32 L94.00,95.50 L94.42,95.41 L94.37,95.23 L94.28,95.08 L94.16,94.94 L94.00,94.84 L93.81,94.78 L93.58,94.75 L93.34,94.78 L93.13,94.86 L92.95,94.98 L92.81,95.16 L92.73,95.37 L92.70,95.63 L92.70,95.68 L92.73,95.93 L92.81,96.15 L92.95,96.32 L93.13,96.45 L93.34,96.53Z" />
<path spline_1deg="" d=" M95.32,96.55 L95.48,96.54 L95.60,96.50 L95.69,96.44 L95.75,96.38 L95.81,96.27 L95.88,96.27 L95.88,96.28 L95.90,96.37 L95.96,96.44 L96.05,96.49 L96.17,96.50 L96.46,96.50 L96.46,96.15 L96.32,96.15 L96.25,96.12 L96.22,96.04 L96.22,95.41 L96.21,95.26 L96.17,95.13 L96.11,95.02 L96.03,94.92 L95.92,94.85 L95.80,94.80 L95.65,94.77 L95.50,94.75 L95.29,94.77 L95.12,94.82 L94.99,94.90 L94.88,95.00 L94.80,95.11 L94.75,95.23 L95.15,95.37 L95.18,95.26 L95.25,95.18 L95.35,95.12 L95.49,95.10 L95.63,95.12 L95.73,95.18 L95.79,95.27 L95.80,95.38 L95.80,95.47 L95.34,95.47 L95.16,95.49 L95.00,95.53 L94.86,95.61 L94.76,95.71 L94.70,95.85 L94.68,96.01 L94.70,96.17 L94.76,96.30 L94.86,96.41 L94.99,96.49 L95.15,96.54Z" />
<path spline_1deg="" d=" M97.42,96.50 L97.90,96.50 L97.90,96.15 L97.57,96.15 L97.50,96.12 L97.48,96.04 L97.48,95.16 L97.94,95.16 L97.94,94.80 L97.48,94.80 L97.48,94.27 L97.05,94.27 L97.05,94.80 L96.62,94.80 L96.62,95.16 L97.05,95.16 L97.05,96.12 L97.07,96.28 L97.15,96.40 L97.27,96.48Z" />
<path spline_1deg="" d=" M98.33,94.80 L98.33,96.50 L98.77,96.50 L98.77,94.80Z" />
<path spline_1deg="" d=" M98.55,94.60 L98.66,94.59 L98.75,94.53 L98.81,94.44 L98.83,94.33 L98.81,94.22 L98.75,94.13 L98.66,94.07 L98.55,94.06 L98.44,94.07 L98.35,94.13 L98.29,94.22 L98.27,94.33 L98.29,94.44 L98.35,94.53 L98.44,94.59Z" />
<path spline_1deg="" d=" M100.06,96.55 L100.30,96.53 L100.51,96.45 L100.69,96.32 L100.83,96.15 L100.92,95.94 L100.95,95.68 L100.95,95.63 L100.92,95.37 L100.83,95.16 L100.69,94.98 L100.51,94.86 L100.30,94.78 L100.06,94.75 L99.81,94.78 L99.60,94.86 L99.42,94.98 L99.28,95.16 L99.19,95.37 L99.16,95.63 L99.16,95.68 L99.19,95.94 L99.28,96.15 L99.42,96.32 L99.60,96.45 L99.81,96.53Z" />
<path spline_1deg="" d=" M101.83,95.03 L101.77,95.03 L101.77,94.80 L101.34,94.80 L101.34,96.50 L101.78,96.50 L101.78,95.64 L101.80,95.43 L101.89,95.27 L102.02,95.17 L102.20,95.14 L102.35,95.16 L102.46,95.23 L102.54,95.35 L102.56,95.52 L102.56,96.50 L102.99,96.50 L102.99,95.49 L102.97,95.29 L102.91,95.12 L102.81,94.97 L102.68,94.87 L102.52,94.80 L102.33,94.78 L102.13,94.80 L101.99,94.86 L101.89,94.94Z" />
<path spline_1deg="" d=" M104.31,94.10 L104.31,96.50 L104.75,96.50 L104.75,94.44 L104.81,94.44 L105.23,96.50 L105.97,96.50 L106.38,94.44 L106.45,94.44 L106.45,96.50 L106.89,96.50 L106.89,94.10 L106.05,94.10 L105.63,96.19 L105.57,96.19 L105.15,94.10Z" />
<path spline_1deg="" d=" M108.16,96.55 L108.40,96.53 L108.62,96.45 L108.80,96.32 L108.94,96.15 L109.02,95.94 L109.05,95.68 L109.05,95.63 L109.02,95.37 L108.94,95.16 L108.80,94.98 L108.62,94.86 L108.40,94.78 L108.16,94.75 L107.92,94.78 L107.70,94.86 L107.52,94.98 L107.39,95.16 L107.30,95.37 L107.27,95.63 L107.27,95.68 L107.30,95.94 L107.39,96.15 L107.52,96.32 L107.70,96.45 L107.92,96.53Z" />
<path spline_1deg="" d=" M110.14,96.55 L110.34,96.53 L110.49,96.47 L110.60,96.39 L110.67,96.30 L110.73,96.30 L110.73,96.50 L111.16,96.50 L111.16,94.10 L110.73,94.10 L110.73,95.00 L110.66,95.00 L110.56,94.88 L110.39,94.79 L110.28,94.76 L110.14,94.75 L109.94,94.78 L109.76,94.86 L109.60,94.98 L109.47,95.15 L109.39,95.37 L109.37,95.63 L109.37,95.68 L109.39,95.94 L109.47,96.15 L109.60,96.33 L109.76,96.45 L109.94,96.53Z" />
<path spline_1deg="" d=" M112.41,96.55 L112.62,96.53 L112.80,96.48 L112.93,96.40 L113.04,96.30 L113.18,96.11 L112.82,95.92 L112.77,96.01 L112.69,96.10 L112.58,96.15 L112.43,96.17 L112.26,96.15 L112.12,96.06 L112.03,95.94 L111.99,95.78 L113.23,95.78 L113.23,95.63 L113.21,95.39 L113.13,95.17 L113.01,95.00 L112.84,94.87 L112.64,94.78 L112.41,94.75 L112.17,94.78 L111.96,94.86 L111.79,94.99 L111.66,95.17 L111.58,95.38 L111.56,95.63 L111.56,95.67 L111.58,95.92 L111.66,96.14 L111.79,96.31 L111.96,96.44 L112.17,96.52Z" />
<path spline_1deg="" d=" M113.62,94.10 L113.62,96.50 L114.05,96.50 L114.05,94.10Z" />
<path spline_1deg="" d=" M90.50,73.65 L89.46,73.65 L89.46,76.05 L89.91,76.05 L89.91,75.15 L90.54,75.15 L90.63,75.16 L90.68,75.20 L90.71,75.26 L90.73,75.33 L90.73,76.05 L91.18,76.05 L91.18,75.27 L91.16,75.14 L91.10,75.04 L91.01,74.97 L90.89,74.94 L90.89,74.88 L91.03,74.80 L91.14,74.69 L91.22,74.53 L91.25,74.34 L91.25,74.29 L91.22,74.11 L91.15,73.96 L91.04,73.83 L90.89,73.73 L90.71,73.67Z" />
<path spline_1deg="" d=" M92.41,76.10 L92.62,76.08 L92.80,76.03 L92.93,75.95 L93.04,75.85 L93.18,75.66 L92.82,75.47 L92.77,75.56 L92.69,75.65 L92.58,75.70 L92.43,75.72 L92.26,75.70 L92.12,75.61 L92.03,75.49 L91.99,75.33 L93.23,75.33 L93.23,75.18 L93.21,74.94 L93.13,74.72 L93.01,74.55 L92.84,74.42 L92.64,74.33 L92.41,74.30 L92.17,74.33 L91.96,74.41 L91.79,74.54 L91.66,74.72 L91.58,74.93 L91.56,75.18 L91.56,75.22 L91.58,75.47 L91.66,75.69 L91.79,75.86 L91.96,75.99 L92.17,76.07Z" />
<path spline_1deg="" d=" M93.43,74.35 L93.97,76.05 L94.66,76.05 L95.20,74.35 L94.74,74.35 L94.35,75.74 L94.28,75.74 L93.89,74.35Z" />
<path spline_1deg="" d=" M95.49,74.35 L95.49,76.05 L95.93,76.05 L95.93,74.35Z" />
<path spline_1deg="" d=" M95.71,74.15 L95.82,74.14 L95.91,74.08 L95.97,73.99 L95.99,73.88 L95.97,73.77 L95.91,73.68 L95.82,73.62 L95.71,73.61 L95.60,73.62 L95.51,73.68 L95.45,73.77 L95.43,73.88 L95.45,73.99 L95.51,74.08 L95.60,74.14Z" />
<path spline_1deg="" d=" M97.06,76.05 L97.54,76.05 L97.54,75.70 L97.21,75.70 L97.14,75.67 L97.11,75.59 L97.11,74.71 L97.58,74.71 L97.58,74.35 L97.11,74.35 L97.11,73.82 L96.68,73.82 L96.68,74.35 L96.26,74.35 L96.26,74.71 L96.68,74.71 L96.68,75.67 L96.71,75.83 L96.79,75.95 L96.91,76.03Z" />
<path spline_1deg="" d=" M98.83,73.65 L98.83,76.05 L99.28,76.05 L99.28,75.06 L100.25,75.06 L100.25,74.64 L99.28,74.64 L99.28,74.06 L100.34,74.06 L100.34,73.65Z" />
<path spline_1deg="" d=" M101.20,76.10 L101.36,76.09 L101.48,76.05 L101.57,75.99 L101.63,75.93 L101.69,75.82 L101.76,75.82 L101.76,75.83 L101.78,75.92 L101.84,75.99 L101.93,76.04 L102.05,76.05 L102.34,76.05 L102.34,75.70 L102.20,75.70 L102.13,75.67 L102.10,75.59 L102.10,74.96 L102.09,74.81 L102.06,74.68 L101.99,74.57 L101.91,74.47 L101.80,74.40 L101.68,74.35 L101.54,74.32 L101.38,74.30 L101.18,74.32 L101.01,74.37 L100.87,74.45 L100.76,74.55 L100.68,74.66 L100.63,74.78 L101.03,74.92 L101.07,74.81 L101.13,74.73 L101.23,74.67 L101.37,74.65 L101.51,74.67 L101.61,74.73 L101.67,74.82 L101.69,74.93 L101.69,75.02 L101.22,75.02 L101.04,75.04 L100.88,75.08 L100.75,75.16 L100.65,75.26 L100.58,75.40 L100.56,75.56 L100.58,75.72 L100.65,75.85 L100.75,75.96 L100.87,76.04 L101.03,76.09Z" />
<path spline_1deg="" d=" M103.14,74.54 L103.08,74.54 L103.08,74.35 L102.65,74.35 L102.65,76.05 L103.09,76.05 L103.09,75.05 L103.11,74.89 L103.17,74.78 L103.26,74.71 L103.39,74.69 L103.51,74.70 L103.60,74.76 L103.65,74.84 L103.67,74.97 L103.67,76.05 L104.10,76.05 L104.10,75.05 L104.12,74.89 L104.18,74.78 L104.28,74.71 L104.41,74.69 L104.52,74.70 L104.61,74.76 L104.67,74.84 L104.68,74.97 L104.68,76.05 L105.12,76.05 L105.12,74.94 L105.10,74.75 L105.04,74.59 L104.95,74.48 L104.83,74.39 L104.70,74.34 L104.55,74.33 L104.37,74.34 L104.24,74.40 L104.15,74.48 L104.08,74.58 L104.02,74.58 L103.95,74.48 L103.85,74.40 L103.72,74.34 L103.56,74.33 L103.41,74.34 L103.29,74.39 L103.20,74.46Z" />
<path spline_1deg="" d=" M105.58,74.35 L105.58,76.05 L106.01,76.05 L106.01,74.35Z" />
<path spline_1deg="" d=" M105.80,74.15 L105.91,74.14 L106.00,74.08 L106.06,73.99 L106.08,73.88 L106.06,73.77 L106.00,73.68 L105.91,73.62 L105.80,73.61 L105.69,73.62 L105.60,73.68 L105.54,73.77 L105.52,73.88 L105.54,73.99 L105.60,74.08 L105.69,74.14Z" />
<path spline_1deg="" d=" M106.49,73.65 L106.49,76.05 L106.93,76.05 L106.93,73.65Z" />
<path spline_1deg="" d=" M108.52,76.36 L107.59,76.36 L107.59,76.74 L108.66,76.74 L108.81,76.71 L108.93,76.63 L109.01,76.51 L109.04,76.36 L109.04,74.35 L108.61,74.35 L108.61,75.22 L108.58,75.43 L108.50,75.59 L108.36,75.68 L108.19,75.72 L108.03,75.69 L107.92,75.62 L107.85,75.50 L107.82,75.33 L107.82,74.35 L107.39,74.35 L107.39,75.37 L107.41,75.56 L107.47,75.74 L107.57,75.88 L107.71,75.99 L107.87,76.06 L108.05,76.08 L108.19,76.07 L108.31,76.04 L108.46,75.95 L108.55,75.83 L108.61,75.83 L108.61,76.26 L108.59,76.34Z" />
<path spline_1deg="" d=" M91.49,53.20 L90.44,53.20 L90.44,55.60 L90.90,55.60 L90.90,54.70 L91.53,54.70 L91.61,54.71 L91.67,54.75 L91.70,54.81 L91.71,54.88 L91.71,55.60 L92.16,55.60 L92.16,54.82 L92.15,54.69 L92.09,54.59 L92.00,54.52 L91.88,54.49 L91.88,54.43 L92.02,54.35 L92.13,54.24 L92.21,54.08 L92.23,53.89 L92.23,53.84 L92.21,53.66 L92.14,53.50 L92.03,53.38 L91.88,53.28 L91.70,53.22Z" />
<path spline_1deg="" d=" M93.12,54.11 L93.06,54.11 L93.06,53.20 L92.62,53.20 L92.62,55.60 L93.06,55.60 L93.06,54.74 L93.08,54.53 L93.17,54.37 L93.30,54.27 L93.47,54.24 L93.63,54.26 L93.74,54.33 L93.81,54.45 L93.84,54.62 L93.84,55.60 L94.27,55.60 L94.27,54.59 L94.25,54.39 L94.19,54.22 L94.09,54.07 L93.96,53.97 L93.79,53.90 L93.61,53.88 L93.47,53.88 L93.36,53.91 L93.20,54.00Z" />
<path spline_1deg="" d=" M94.74,53.90 L94.74,55.60 L95.17,55.60 L95.17,53.90Z" />
<path spline_1deg="" d=" M94.95,53.70 L95.06,53.68 L95.15,53.63 L95.21,53.54 L95.23,53.43 L95.21,53.32 L95.15,53.23 L95.06,53.17 L94.95,53.16 L94.84,53.17 L94.76,53.23 L94.69,53.32 L94.67,53.43 L94.69,53.54 L94.76,53.63 L94.84,53.68Z" />
<path spline_1deg="" d=" M96.14,54.13 L96.07,54.13 L96.07,53.90 L95.65,53.90 L95.65,55.60 L96.08,55.60 L96.08,54.74 L96.11,54.53 L96.19,54.37 L96.32,54.27 L96.50,54.24 L96.65,54.26 L96.77,54.33 L96.84,54.45 L96.86,54.62 L96.86,55.60 L97.29,55.60 L97.29,54.59 L97.27,54.39 L97.21,54.22 L97.11,54.07 L96.98,53.97 L96.82,53.90 L96.63,53.88 L96.43,53.90 L96.29,53.96 L96.19,54.04Z" />
<path spline_1deg="" d=" M98.57,55.65 L98.81,55.63 L99.03,55.55 L99.21,55.42 L99.34,55.25 L99.43,55.03 L99.46,54.78 L99.46,54.73 L99.43,54.47 L99.34,54.26 L99.21,54.08 L99.03,53.96 L98.81,53.88 L98.57,53.85 L98.33,53.88 L98.11,53.96 L97.93,54.08 L97.79,54.26 L97.71,54.47 L97.68,54.73 L97.68,54.78 L97.71,55.03 L97.79,55.25 L97.93,55.42 L98.11,55.55 L98.33,55.63Z" />
<path spline_1deg="" d=" M101.88,53.20 L100.65,53.20 L100.65,53.60 L100.96,53.60 L100.96,55.21 L100.65,55.21 L100.65,55.60 L101.90,55.60 L102.10,55.58 L102.27,55.53 L102.42,55.44 L102.53,55.31 L102.60,55.15 L102.62,54.97 L102.62,54.93 L102.61,54.78 L102.56,54.66 L102.49,54.56 L102.41,54.49 L102.24,54.42 L102.24,54.36 L102.40,54.27 L102.48,54.21 L102.55,54.11 L102.59,53.99 L102.61,53.84 L102.61,53.81 L102.59,53.63 L102.52,53.49 L102.41,53.37 L102.26,53.28 L102.09,53.22Z" />
<path spline_1deg="" d=" M103.49,54.09 L103.43,54.09 L103.43,53.90 L103.01,53.90 L103.01,55.60 L103.44,55.60 L103.44,54.64 L103.46,54.48 L103.54,54.37 L103.67,54.30 L103.82,54.28 L104.03,54.28 L104.03,53.90 L103.82,53.90 L103.71,53.91 L103.62,53.94 L103.54,54.01Z" />
<path spline_1deg="" d=" M105.14,55.65 L105.35,55.63 L105.52,55.58 L105.66,55.50 L105.76,55.40 L105.90,55.21 L105.55,55.02 L105.50,55.11 L105.42,55.20 L105.31,55.25 L105.15,55.27 L104.99,55.25 L104.85,55.16 L104.76,55.04 L104.72,54.88 L105.96,54.88 L105.96,54.73 L105.93,54.49 L105.86,54.27 L105.73,54.10 L105.57,53.97 L105.37,53.88 L105.13,53.85 L104.89,53.88 L104.69,53.96 L104.52,54.09 L104.39,54.27 L104.31,54.48 L104.28,54.73 L104.28,54.77 L104.31,55.02 L104.39,55.24 L104.52,55.41 L104.69,55.54 L104.90,55.62Z" />
<path spline_1deg="" d=" M106.83,54.11 L106.77,54.11 L106.77,53.90 L106.34,53.90 L106.34,56.29 L106.77,56.29 L106.77,55.41 L106.84,55.41 L106.94,55.52 L107.10,55.62 L107.22,55.64 L107.36,55.65 L107.56,55.63 L107.74,55.55 L107.90,55.43 L108.03,55.25 L108.11,55.04 L108.13,54.78 L108.13,54.73 L108.11,54.47 L108.03,54.25 L107.90,54.08 L107.74,53.96 L107.56,53.88 L107.36,53.85 L107.16,53.87 L107.01,53.93 L106.90,54.01Z" />
<path spline_1deg="" d=" M90.89,32.75 L89.90,32.75 L89.90,35.15 L90.36,35.15 L90.36,34.28 L90.89,34.28 L91.10,34.25 L91.28,34.18 L91.44,34.07 L91.56,33.93 L91.63,33.75 L91.66,33.54 L91.66,33.49 L91.63,33.28 L91.56,33.10 L91.44,32.95 L91.29,32.84 L91.10,32.78Z" />
<path spline_1deg="" d=" M92.80,35.20 L93.04,35.18 L93.25,35.10 L93.43,34.97 L93.57,34.80 L93.66,34.58 L93.69,34.33 L93.69,34.28 L93.66,34.02 L93.57,33.81 L93.43,33.63 L93.25,33.51 L93.04,33.43 L92.80,33.40 L92.56,33.43 L92.34,33.51 L92.16,33.63 L92.02,33.81 L91.94,34.02 L91.91,34.28 L91.91,34.33 L91.94,34.58 L92.02,34.80 L92.16,34.97 L92.34,35.10 L92.56,35.18Z" />
<path spline_1deg="" d=" M94.09,33.45 L94.09,35.15 L94.52,35.15 L94.52,33.45Z" />
<path spline_1deg="" d=" M94.30,33.25 L94.41,33.23 L94.50,33.18 L94.56,33.09 L94.58,32.98 L94.56,32.87 L94.50,32.78 L94.41,32.72 L94.30,32.70 L94.19,32.72 L94.11,32.78 L94.04,32.87 L94.02,32.98 L94.04,33.09 L94.11,33.18 L94.19,33.23Z" />
<path spline_1deg="" d=" M95.49,33.68 L95.42,33.68 L95.42,33.45 L95.00,33.45 L95.00,35.15 L95.43,35.15 L95.43,34.29 L95.46,34.08 L95.54,33.92 L95.67,33.82 L95.85,33.79 L96.00,33.81 L96.12,33.88 L96.19,34.00 L96.21,34.17 L96.21,35.15 L96.64,35.15 L96.64,34.14 L96.62,33.94 L96.56,33.77 L96.46,33.62 L96.33,33.52 L96.17,33.45 L95.98,33.42 L95.78,33.45 L95.64,33.51 L95.54,33.59Z" />
<path spline_1deg="" d=" M97.76,35.15 L98.24,35.15 L98.24,34.80 L97.91,34.80 L97.84,34.77 L97.82,34.69 L97.82,33.81 L98.28,33.81 L98.28,33.45 L97.82,33.45 L97.82,32.92 L97.38,32.92 L97.38,33.45 L96.96,33.45 L96.96,33.81 L97.38,33.81 L97.38,34.77 L97.41,34.93 L97.49,35.05 L97.61,35.13Z" />
<path spline_1deg="" d=" M100.44,35.20 L100.65,35.19 L100.84,35.14 L100.99,35.06 L101.13,34.96 L101.23,34.83 L101.31,34.67 L101.35,34.50 L101.37,34.30 L101.37,34.25 L100.92,34.25 L100.92,34.31 L100.89,34.50 L100.80,34.66 L100.74,34.72 L100.66,34.76 L100.44,34.80 L100.33,34.79 L100.23,34.76 L100.14,34.71 L100.07,34.65 L100.01,34.57 L99.96,34.47 L99.93,34.25 L99.93,33.66 L99.96,33.43 L100.01,33.34 L100.07,33.26 L100.14,33.19 L100.23,33.15 L100.33,33.12 L100.44,33.11 L100.66,33.14 L100.74,33.19 L100.80,33.25 L100.89,33.40 L100.92,33.60 L100.92,33.63 L101.37,33.63 L101.37,33.61 L101.35,33.41 L101.31,33.23 L101.23,33.08 L101.13,32.95 L100.99,32.84 L100.84,32.77 L100.65,32.72 L100.44,32.70 L100.23,32.72 L100.04,32.77 L99.88,32.84 L99.74,32.95 L99.62,33.09 L99.54,33.26 L99.49,33.45 L99.48,33.66 L99.48,34.24 L99.49,34.46 L99.54,34.65 L99.62,34.81 L99.74,34.95 L99.88,35.06 L100.04,35.14 L100.23,35.19Z" />
<path spline_1deg="" d=" M101.75,32.75 L101.75,35.15 L102.18,35.15 L102.18,32.75Z" />
<path spline_1deg="" d=" M103.47,35.20 L103.71,35.18 L103.93,35.10 L104.11,34.97 L104.25,34.80 L104.34,34.58 L104.37,34.33 L104.37,34.28 L104.34,34.02 L104.25,33.81 L104.11,33.63 L103.93,33.51 L103.71,33.43 L103.47,33.40 L103.23,33.43 L103.02,33.51 L102.84,33.63 L102.70,33.81 L102.61,34.02 L102.58,34.28 L102.58,34.33 L102.61,34.58 L102.70,34.80 L102.84,34.97 L103.02,35.10 L103.23,35.18Z" />
<path spline_1deg="" d=" M105.41,35.18 L105.61,35.16 L105.75,35.10 L105.85,35.01 L105.91,34.93 L105.97,34.93 L105.97,35.15 L106.40,35.15 L106.40,33.45 L105.96,33.45 L105.96,34.32 L105.94,34.53 L105.85,34.68 L105.72,34.78 L105.54,34.82 L105.39,34.79 L105.28,34.72 L105.20,34.60 L105.18,34.43 L105.18,33.45 L104.75,33.45 L104.75,34.47 L104.77,34.66 L104.83,34.84 L104.93,34.98 L105.06,35.09 L105.22,35.16Z" />
<path spline_1deg="" d=" M107.56,35.20 L107.77,35.18 L107.92,35.12 L108.02,35.04 L108.10,34.95 L108.16,34.95 L108.16,35.15 L108.58,35.15 L108.58,32.75 L108.15,32.75 L108.15,33.65 L108.09,33.65 L107.99,33.53 L107.82,33.44 L107.70,33.41 L107.56,33.40 L107.36,33.43 L107.18,33.51 L107.02,33.63 L106.90,33.80 L106.82,34.02 L106.79,34.28 L106.79,34.33 L106.82,34.59 L106.90,34.80 L107.02,34.98 L107.18,35.10 L107.36,35.18Z" />
<path spline_1deg="" d=" M210.20,24.98 L210.46,24.95 L210.68,24.88 L210.86,24.77 L211.00,24.62 L211.08,24.44 L211.11,24.24 L211.08,24.04 L211.00,23.88 L210.87,23.75 L210.70,23.65 L210.50,23.57 L210.26,23.51 L210.18,23.49 L209.94,23.42 L209.86,23.37 L209.80,23.32 L209.77,23.25 L209.76,23.17 L209.78,23.05 L209.85,22.95 L209.98,22.90 L210.16,22.88 L210.28,22.89 L210.39,22.92 L210.48,22.97 L210.55,23.04 L210.59,23.14 L210.60,23.26 L210.60,23.36 L211.04,23.36 L211.04,23.26 L211.02,23.02 L210.93,22.83 L210.79,22.68 L210.61,22.57 L210.40,22.50 L210.16,22.48 L209.92,22.50 L209.71,22.56 L209.54,22.67 L209.41,22.80 L209.34,22.98 L209.31,23.18 L209.33,23.38 L209.40,23.54 L209.52,23.66 L209.68,23.76 L209.87,23.83 L210.10,23.90 L210.18,23.91 L210.44,23.99 L210.53,24.03 L210.60,24.09 L210.65,24.16 L210.66,24.25 L210.63,24.38 L210.55,24.49 L210.40,24.55 L210.20,24.58 L209.99,24.55 L209.83,24.47 L209.78,24.41 L209.73,24.34 L209.70,24.15 L209.70,24.05 L209.26,24.05 L209.26,24.15 L209.29,24.39 L209.38,24.59 L209.52,24.76 L209.71,24.88 L209.94,24.95Z" />
<path spline_1deg="" d=" M212.23,24.98 L212.44,24.96 L212.62,24.90 L212.75,24.82 L212.86,24.72 L213.00,24.53 L212.64,24.34 L212.59,24.44 L212.51,24.52 L212.40,24.58 L212.24,24.60 L212.08,24.57 L211.94,24.49 L211.85,24.36 L211.81,24.20 L213.05,24.20 L213.05,24.06 L213.02,23.81 L212.95,23.60 L212.82,23.42 L212.66,23.29 L212.46,23.21 L212.22,23.18 L211.99,23.21 L211.78,23.29 L211.61,23.42 L211.48,23.59 L211.40,23.81 L211.37,24.06 L211.37,24.10 L211.40,24.35 L211.48,24.56 L211.61,24.74 L211.78,24.87 L211.99,24.95Z" />
<path spline_1deg="" d=" M214.09,24.93 L214.57,24.93 L214.57,24.57 L214.24,24.57 L214.16,24.55 L214.14,24.47 L214.14,23.58 L214.61,23.58 L214.61,23.23 L214.14,23.23 L214.14,22.70 L213.71,22.70 L213.71,23.23 L213.28,23.23 L213.28,23.58 L213.71,23.58 L213.71,24.54 L213.73,24.70 L213.81,24.82 L213.93,24.90Z" />
<path spline_1deg="" d=" M215.81,24.98 L216.05,24.95 L216.26,24.87 L216.44,24.75 L216.58,24.57 L216.67,24.36 L216.70,24.10 L216.70,24.05 L216.67,23.80 L216.58,23.58 L216.44,23.41 L216.26,23.28 L216.05,23.20 L215.81,23.18 L215.57,23.20 L215.35,23.28 L215.17,23.41 L215.03,23.58 L214.94,23.80 L214.92,24.05 L214.92,24.10 L214.94,24.36 L215.03,24.57 L215.17,24.75 L215.35,24.87 L215.57,24.95Z" />
<path spline_1deg="" d=" M217.74,24.96 L217.94,24.93 L218.09,24.87 L218.18,24.79 L218.24,24.70 L218.30,24.70 L218.30,24.93 L218.73,24.93 L218.73,23.23 L218.30,23.23 L218.30,24.09 L218.27,24.30 L218.19,24.46 L218.05,24.56 L217.88,24.59 L217.72,24.57 L217.61,24.50 L217.54,24.38 L217.51,24.21 L217.51,23.23 L217.08,23.23 L217.08,24.24 L217.10,24.44 L217.16,24.61 L217.26,24.76 L217.40,24.86 L217.56,24.93Z" />
<path spline_1deg="" d=" M219.86,24.93 L220.34,24.93 L220.34,24.57 L220.01,24.57 L219.94,24.55 L219.91,24.47 L219.91,23.58 L220.38,23.58 L220.38,23.23 L219.91,23.23 L219.91,22.70 L219.48,22.70 L219.48,23.23 L219.06,23.23 L219.06,23.58 L219.48,23.58 L219.48,24.54 L219.51,24.70 L219.59,24.82 L219.71,24.90Z" />
<path spline_1deg="" d=" M221.63,22.53 L221.63,24.93 L223.19,24.93 L223.19,24.52 L222.08,24.52 L222.08,23.92 L223.08,23.92 L223.08,23.51 L222.08,23.51 L222.08,22.94 L223.17,22.94 L223.17,22.53Z" />
<path spline_1deg="" d=" M223.54,22.53 L223.54,24.93 L223.97,24.93 L223.97,22.53Z" />
<path spline_1deg="" d=" M225.23,24.98 L225.44,24.96 L225.61,24.90 L225.75,24.82 L225.85,24.72 L225.99,24.53 L225.64,24.34 L225.59,24.44 L225.51,24.52 L225.40,24.58 L225.24,24.60 L225.08,24.57 L224.94,24.49 L224.85,24.36 L224.81,24.20 L226.05,24.20 L226.05,24.06 L226.02,23.81 L225.95,23.60 L225.82,23.42 L225.66,23.29 L225.46,23.21 L225.22,23.18 L224.98,23.21 L224.78,23.29 L224.61,23.42 L224.48,23.59 L224.40,23.81 L224.37,24.06 L224.37,24.10 L224.40,24.35 L224.48,24.56 L224.61,24.74 L224.78,24.87 L224.99,24.95Z" />
<path spline_1deg="" d=" M226.92,23.41 L226.86,23.41 L226.86,23.23 L226.43,23.23 L226.43,24.93 L226.86,24.93 L226.86,23.92 L226.88,23.77 L226.94,23.65 L227.04,23.58 L227.17,23.56 L227.29,23.58 L227.38,23.63 L227.43,23.72 L227.45,23.84 L227.45,24.93 L227.88,24.93 L227.88,23.92 L227.90,23.77 L227.96,23.65 L228.06,23.58 L228.19,23.56 L228.30,23.58 L228.39,23.63 L228.44,23.72 L228.46,23.84 L228.46,24.93 L228.89,24.93 L228.89,23.81 L228.87,23.62 L228.82,23.47 L228.73,23.35 L228.61,23.27 L228.48,23.22 L228.32,23.20 L228.15,23.22 L228.02,23.27 L227.93,23.35 L227.86,23.45 L227.80,23.45 L227.73,23.35 L227.63,23.27 L227.50,23.22 L227.34,23.20 L227.19,23.22 L227.07,23.26 L226.98,23.33Z" />
<path spline_1deg="" d=" M230.14,24.98 L230.35,24.96 L230.52,24.90 L230.65,24.82 L230.76,24.72 L230.90,24.53 L230.55,24.34 L230.49,24.44 L230.42,24.52 L230.31,24.58 L230.15,24.60 L229.98,24.57 L229.85,24.49 L229.75,24.36 L229.72,24.20 L230.95,24.20 L230.95,24.06 L230.93,23.81 L230.85,23.60 L230.73,23.42 L230.56,23.29 L230.36,23.21 L230.13,23.18 L229.89,23.21 L229.68,23.29 L229.51,23.42 L229.38,23.59 L229.30,23.81 L229.28,24.06 L229.28,24.10 L229.30,24.35 L229.39,24.56 L229.52,24.74 L229.69,24.87 L229.90,24.95Z" />
<path spline_1deg="" d=" M231.83,23.45 L231.76,23.45 L231.76,23.23 L231.34,23.23 L231.34,24.93 L231.77,24.93 L231.77,24.06 L231.80,23.85 L231.88,23.70 L232.01,23.60 L232.19,23.56 L232.34,23.59 L232.46,23.66 L232.53,23.78 L232.55,23.95 L232.55,24.93 L232.98,24.93 L232.98,23.91 L232.96,23.71 L232.90,23.54 L232.80,23.40 L232.67,23.29 L232.51,23.22 L232.32,23.20 L232.12,23.22 L231.98,23.28 L231.88,23.36Z" />
<path spline_1deg="" d=" M234.10,24.93 L234.58,24.93 L234.58,24.57 L234.25,24.57 L234.18,24.55 L234.16,24.47 L234.16,23.58 L234.62,23.58 L234.62,23.23 L234.16,23.23 L234.16,22.70 L233.72,22.70 L233.72,23.23 L233.30,23.23 L233.30,23.58 L233.72,23.58 L233.72,24.54 L233.75,24.70 L233.83,24.82 L233.95,24.90Z" />
<path spline_1deg="" d=" M217.86,42.98 L217.86,45.38 L219.41,45.38 L219.41,44.97 L218.31,44.97 L218.31,42.98Z" />
<path spline_1deg="" d=" M220.51,45.43 L220.72,45.41 L220.89,45.35 L221.02,45.27 L221.13,45.17 L221.27,44.98 L220.92,44.80 L220.86,44.89 L220.79,44.97 L220.68,45.03 L220.52,45.05 L220.35,45.02 L220.22,44.94 L220.12,44.81 L220.09,44.65 L221.32,44.65 L221.32,44.51 L221.30,44.26 L221.22,44.05 L221.10,43.87 L220.93,43.74 L220.73,43.66 L220.50,43.63 L220.26,43.66 L220.05,43.74 L219.88,43.87 L219.75,44.04 L219.67,44.26 L219.65,44.51 L219.65,44.55 L219.67,44.80 L219.76,45.01 L219.89,45.19 L220.06,45.32 L220.27,45.40Z" />
<path spline_1deg="" d=" M221.52,43.68 L222.07,45.38 L222.75,45.38 L223.29,43.68 L222.83,43.68 L222.44,45.06 L222.38,45.06 L221.98,43.68Z" />
<path spline_1deg="" d=" M224.36,45.43 L224.57,45.41 L224.75,45.35 L224.88,45.27 L224.99,45.17 L225.13,44.98 L224.77,44.80 L224.72,44.89 L224.64,44.97 L224.53,45.03 L224.38,45.05 L224.21,45.02 L224.07,44.94 L223.98,44.81 L223.94,44.65 L225.18,44.65 L225.18,44.51 L225.16,44.26 L225.08,44.05 L224.96,43.87 L224.79,43.74 L224.59,43.66 L224.36,43.63 L224.12,43.66 L223.91,43.74 L223.74,43.87 L223.61,44.04 L223.53,44.26 L223.51,44.51 L223.51,44.55 L223.53,44.80 L223.61,45.01 L223.74,45.19 L223.91,45.32 L224.12,45.40Z" />
<path spline_1deg="" d=" M225.57,42.98 L225.57,45.38 L226.00,45.38 L226.00,42.98Z" />
<path spline_1deg="" d=" M214.02,62.83 L214.02,66.43 L216.34,66.43 L216.34,65.81 L214.70,65.81 L214.70,62.83Z" />
<path spline_1deg="" d=" M217.99,66.50 L218.31,66.47 L218.56,66.39 L218.77,66.27 L218.93,66.12 L219.14,65.83 L218.61,65.55 L218.52,65.69 L218.41,65.82 L218.34,65.87 L218.25,65.90 L218.01,65.93 L217.88,65.92 L217.76,65.89 L217.65,65.84 L217.56,65.77 L217.47,65.68 L217.41,65.58 L217.38,65.47 L217.36,65.34 L219.22,65.34 L219.22,65.12 L219.21,64.93 L219.18,64.75 L219.13,64.59 L219.06,64.44 L218.98,64.30 L218.88,64.17 L218.76,64.06 L218.63,63.97 L218.49,63.90 L218.33,63.85 L218.16,63.82 L217.98,63.81 L217.79,63.82 L217.62,63.85 L217.46,63.90 L217.31,63.97 L217.17,64.06 L217.05,64.16 L216.95,64.29 L216.86,64.43 L216.79,64.58 L216.74,64.75 L216.71,64.93 L216.70,65.12 L216.70,65.18 L216.71,65.38 L216.74,65.56 L216.79,65.73 L216.86,65.88 L216.95,66.02 L217.06,66.14 L217.18,66.25 L217.32,66.34 L217.47,66.41 L217.63,66.46 L217.80,66.49Z" />
<path spline_1deg="" d=" M219.52,63.88 L220.33,66.43 L221.36,66.43 L222.17,63.88 L221.48,63.88 L220.89,65.96 L220.80,65.96 L220.20,63.88Z" />
<path spline_1deg="" d=" M223.77,66.50 L224.09,66.47 L224.35,66.39 L224.55,66.27 L224.71,66.12 L224.92,65.83 L224.39,65.55 L224.31,65.69 L224.20,65.82 L224.12,65.87 L224.03,65.90 L223.79,65.93 L223.67,65.92 L223.55,65.89 L223.44,65.84 L223.34,65.77 L223.26,65.68 L223.20,65.58 L223.16,65.47 L223.15,65.34 L225.00,65.34 L225.00,65.12 L224.99,64.93 L224.96,64.75 L224.92,64.59 L224.85,64.44 L224.76,64.30 L224.66,64.17 L224.55,64.06 L224.42,63.97 L224.27,63.90 L224.11,63.85 L223.95,63.82 L223.76,63.81 L223.58,63.82 L223.41,63.85 L223.24,63.90 L223.10,63.97 L222.96,64.06 L222.84,64.16 L222.74,64.29 L222.65,64.43 L222.58,64.58 L222.53,64.75 L222.50,64.93 L222.49,65.12 L222.49,65.18 L222.50,65.38 L222.53,65.56 L222.58,65.73 L222.65,65.88 L222.74,66.02 L222.84,66.14 L222.97,66.25 L223.10,66.34 L223.25,66.41 L223.42,66.46 L223.59,66.49Z" />
<path spline_1deg="" d=" M225.58,62.83 L225.58,66.43 L226.23,66.43 L226.23,62.83Z" />
<path spline_1deg="" d=" M229.22,63.31 L229.22,66.43 L229.88,66.43 L229.88,62.83 L228.69,62.83 L227.96,64.45 L228.64,64.45 L229.13,63.31Z" />
<path spline_1deg="" d=" M130.54,22.53 L129.30,22.53 L129.30,22.93 L129.62,22.93 L129.62,24.53 L129.30,24.53 L129.30,24.93 L130.55,24.93 L130.75,24.91 L130.93,24.85 L131.07,24.76 L131.18,24.63 L131.25,24.48 L131.28,24.29 L131.28,24.26 L131.26,24.10 L131.21,23.98 L131.14,23.89 L131.06,23.82 L130.90,23.74 L130.90,23.68 L131.06,23.60 L131.13,23.53 L131.20,23.44 L131.25,23.32 L131.26,23.17 L131.26,23.13 L131.24,22.96 L131.17,22.81 L131.06,22.69 L130.92,22.60 L130.74,22.55Z" />
<path spline_1deg="" d=" M132.31,24.96 L132.51,24.93 L132.65,24.87 L132.75,24.79 L132.81,24.70 L132.87,24.70 L132.87,24.93 L133.29,24.93 L133.29,23.23 L132.86,23.23 L132.86,24.09 L132.83,24.30 L132.75,24.46 L132.62,24.56 L132.44,24.59 L132.29,24.57 L132.17,24.50 L132.10,24.38 L132.08,24.21 L132.08,23.23 L131.65,23.23 L131.65,24.24 L131.67,24.44 L131.73,24.61 L131.83,24.76 L131.96,24.86 L132.12,24.93Z" />
<path spline_1deg="" d=" M133.77,23.23 L133.77,24.93 L134.20,24.93 L134.20,23.23Z" />
<path spline_1deg="" d=" M133.99,23.03 L134.10,23.01 L134.19,22.95 L134.25,22.87 L134.27,22.75 L134.25,22.64 L134.19,22.56 L134.10,22.50 L133.99,22.48 L133.88,22.50 L133.79,22.56 L133.73,22.64 L133.71,22.75 L133.73,22.87 L133.79,22.95 L133.88,23.01Z" />
<path spline_1deg="" d=" M134.68,22.53 L134.68,24.93 L135.12,24.93 L135.12,22.53Z" />
<path spline_1deg="" d=" M136.25,24.93 L136.73,24.93 L136.73,24.57 L136.40,24.57 L136.33,24.55 L136.30,24.47 L136.30,23.58 L136.77,23.58 L136.77,23.23 L136.30,23.23 L136.30,22.70 L135.87,22.70 L135.87,23.23 L135.45,23.23 L135.45,23.58 L135.87,23.58 L135.87,24.54 L135.90,24.70 L135.98,24.82 L136.10,24.90Z" />
<path spline_1deg="" d=" M138.02,22.53 L138.02,24.93 L139.58,24.93 L139.58,24.52 L138.47,24.52 L138.47,23.92 L139.46,23.92 L139.46,23.51 L138.47,23.51 L138.47,22.94 L139.56,22.94 L139.56,22.53Z" />
<path spline_1deg="" d=" M139.93,22.53 L139.93,24.93 L140.36,24.93 L140.36,22.53Z" />
<path spline_1deg="" d=" M141.62,24.98 L141.83,24.96 L142.00,24.90 L142.14,24.82 L142.24,24.72 L142.38,24.53 L142.03,24.34 L141.97,24.44 L141.90,24.52 L141.79,24.58 L141.63,24.60 L141.47,24.57 L141.33,24.49 L141.24,24.36 L141.20,24.20 L142.44,24.20 L142.44,24.06 L142.41,23.81 L142.33,23.60 L142.21,23.42 L142.05,23.29 L141.84,23.21 L141.61,23.18 L141.37,23.21 L141.16,23.29 L140.99,23.42 L140.87,23.59 L140.79,23.81 L140.76,24.06 L140.76,24.10 L140.79,24.35 L140.87,24.56 L141.00,24.74 L141.17,24.87 L141.38,24.95Z" />
<path spline_1deg="" d=" M143.31,23.41 L143.25,23.41 L143.25,23.23 L142.82,23.23 L142.82,24.93 L143.25,24.93 L143.25,23.92 L143.27,23.77 L143.33,23.65 L143.43,23.58 L143.56,23.56 L143.68,23.58 L143.76,23.63 L143.82,23.72 L143.84,23.84 L143.84,24.93 L144.27,24.93 L144.27,23.92 L144.29,23.77 L144.35,23.65 L144.45,23.58 L144.58,23.56 L144.69,23.58 L144.78,23.63 L144.83,23.72 L144.85,23.84 L144.85,24.93 L145.28,24.93 L145.28,23.81 L145.26,23.62 L145.21,23.47 L145.12,23.35 L145.00,23.27 L144.86,23.22 L144.71,23.20 L144.54,23.22 L144.41,23.27 L144.32,23.35 L144.25,23.45 L144.19,23.45 L144.11,23.35 L144.02,23.27 L143.89,23.22 L143.73,23.20 L143.57,23.22 L143.46,23.26 L143.37,23.33Z" />
<path spline_1deg="" d=" M146.52,24.98 L146.74,24.96 L146.91,24.90 L147.04,24.82 L147.15,24.72 L147.29,24.53 L146.94,24.34 L146.88,24.44 L146.80,24.52 L146.70,24.58 L146.54,24.60 L146.37,24.57 L146.24,24.49 L146.14,24.36 L146.11,24.20 L147.34,24.20 L147.34,24.06 L147.32,23.81 L147.24,23.60 L147.12,23.42 L146.95,23.29 L146.75,23.21 L146.52,23.18 L146.28,23.21 L146.07,23.29 L145.90,23.42 L145.77,23.59 L145.69,23.81 L145.67,24.06 L145.67,24.10 L145.69,24.35 L145.77,24.56 L145.90,24.74 L146.08,24.87 L146.29,24.95Z" />
<path spline_1deg="" d=" M148.21,23.45 L148.15,23.45 L148.15,23.23 L147.73,23.23 L147.73,24.93 L148.16,24.93 L148.16,24.06 L148.19,23.85 L148.27,23.70 L148.40,23.60 L148.58,23.56 L148.73,23.59 L148.85,23.66 L148.92,23.78 L148.94,23.95 L148.94,24.93 L149.37,24.93 L149.37,23.91 L149.35,23.71 L149.29,23.54 L149.19,23.40 L149.06,23.29 L148.90,23.22 L148.71,23.20 L148.51,23.22 L148.37,23.28 L148.27,23.36Z" />
<path spline_1deg="" d=" M150.49,24.93 L150.97,24.93 L150.97,24.57 L150.64,24.57 L150.57,24.55 L150.55,24.47 L150.55,23.58 L151.01,23.58 L151.01,23.23 L150.55,23.23 L150.55,22.70 L150.11,22.70 L150.11,23.23 L149.69,23.23 L149.69,23.58 L150.11,23.58 L150.11,24.54 L150.14,24.70 L150.22,24.82 L150.34,24.90Z" />
<path spline_1deg="" d=" M137.36,42.98 L136.38,42.98 L136.38,43.38 L136.69,43.38 L136.69,44.98 L136.38,44.98 L136.38,45.38 L137.36,45.38 L137.59,45.36 L137.79,45.32 L137.96,45.24 L138.10,45.13 L138.21,45.00 L138.29,44.83 L138.33,44.63 L138.35,44.40 L138.35,43.95 L138.33,43.72 L138.29,43.53 L138.21,43.36 L138.10,43.22 L137.96,43.12 L137.79,43.04 L137.59,42.99Z" />
<path spline_1deg="" d=" M139.55,45.43 L139.79,45.40 L140.01,45.32 L140.19,45.20 L140.33,45.02 L140.41,44.81 L140.44,44.56 L140.44,44.50 L140.41,44.25 L140.33,44.03 L140.19,43.86 L140.01,43.73 L139.79,43.66 L139.55,43.63 L139.31,43.66 L139.09,43.73 L138.91,43.86 L138.78,44.03 L138.69,44.25 L138.66,44.50 L138.66,44.56 L138.69,44.81 L138.78,45.02 L138.91,45.20 L139.09,45.32 L139.31,45.40Z" />
<path spline_1deg="" d=" M141.65,45.43 L141.89,45.40 L142.10,45.32 L142.29,45.20 L142.42,45.02 L142.51,44.81 L142.54,44.56 L142.54,44.50 L142.51,44.25 L142.42,44.03 L142.29,43.86 L142.10,43.73 L141.89,43.66 L141.65,43.63 L141.41,43.66 L141.19,43.73 L141.01,43.86 L140.87,44.03 L140.79,44.25 L140.76,44.50 L140.76,44.56 L140.79,44.81 L140.87,45.02 L141.01,45.20 L141.19,45.32 L141.41,45.40Z" />
<path spline_1deg="" d=" M143.42,43.87 L143.36,43.87 L143.36,43.68 L142.94,43.68 L142.94,45.38 L143.37,45.38 L143.37,44.41 L143.40,44.25 L143.48,44.14 L143.60,44.08 L143.75,44.05 L143.96,44.05 L143.96,43.67 L143.75,43.67 L143.64,43.68 L143.55,43.72 L143.47,43.78Z" />
<path spline_1deg="" d=" M135.00,62.83 L133.51,62.83 L133.51,63.42 L133.99,63.42 L133.99,65.83 L133.51,65.83 L133.51,66.43 L135.00,66.43 L135.34,66.41 L135.63,66.34 L135.89,66.22 L136.10,66.06 L136.26,65.85 L136.38,65.60 L136.45,65.31 L136.48,64.97 L136.48,64.29 L136.45,63.95 L136.38,63.65 L136.26,63.40 L136.10,63.20 L135.89,63.04 L135.63,62.92 L135.34,62.85Z" />
<path spline_1deg="" d=" M138.03,63.31 L138.03,66.43 L138.69,66.43 L138.69,62.83 L137.50,62.83 L136.76,64.45 L137.45,64.45 L137.94,63.31Z" />
<path spline_1deg="" d=" M139.79,66.50 L139.99,66.47 L140.14,66.36 L140.25,66.21 L140.28,66.02 L140.25,65.82 L140.14,65.66 L139.99,65.56 L139.79,65.52 L139.60,65.56 L139.45,65.66 L139.38,65.73 L139.34,65.82 L139.31,66.01 L139.34,66.21 L139.38,66.29 L139.45,66.36 L139.60,66.47Z" />
<path spline_1deg="" d=" M142.23,66.50 L142.53,66.48 L142.80,66.41 L143.04,66.30 L143.25,66.15 L143.42,65.95 L143.54,65.70 L143.61,65.42 L143.64,65.08 L143.64,64.18 L143.61,63.85 L143.54,63.56 L143.42,63.32 L143.25,63.12 L143.04,62.96 L142.80,62.85 L142.53,62.78 L142.23,62.76 L141.92,62.78 L141.65,62.85 L141.41,62.96 L141.20,63.12 L141.03,63.32 L140.91,63.56 L140.84,63.85 L140.82,64.18 L140.82,65.08 L140.84,65.42 L140.91,65.70 L141.03,65.95 L141.20,66.15 L141.41,66.30 L141.65,66.41 L141.92,66.48Z" />
<path spline_1deg="" d=" M145.46,66.50 L145.84,66.46 L146.01,66.42 L146.17,66.36 L146.31,66.28 L146.44,66.19 L146.55,66.08 L146.64,65.96 L146.72,65.82 L146.77,65.68 L146.80,65.52 L146.81,65.35 L146.81,65.29 L146.80,65.13 L146.78,64.99 L146.73,64.87 L146.66,64.76 L146.50,64.58 L146.29,64.46 L146.05,64.39 L145.82,64.36 L145.63,64.36 L145.63,64.28 L146.71,63.70 L146.71,62.83 L144.16,62.83 L144.16,63.41 L145.98,63.41 L145.98,63.50 L144.82,64.11 L144.82,64.83 L145.54,64.83 L145.70,64.85 L145.85,64.88 L145.98,64.95 L146.07,65.03 L146.13,65.15 L146.16,65.30 L146.16,65.35 L146.14,65.47 L146.11,65.57 L146.05,65.67 L145.97,65.75 L145.87,65.82 L145.75,65.87 L145.61,65.90 L145.46,65.91 L145.30,65.90 L145.16,65.87 L145.03,65.82 L144.93,65.74 L144.84,65.65 L144.78,65.54 L144.74,65.42 L144.73,65.28 L144.73,65.21 L144.07,65.21 L144.07,65.30 L144.08,65.48 L144.11,65.65 L144.17,65.80 L144.24,65.94 L144.34,66.07 L144.46,66.18 L144.59,66.28 L144.74,66.36 L144.90,66.42 L145.07,66.46Z" />
    </svg>