<?xml version="1.0" encoding="utf-8"?>
    <!-- Generator: Grasshopper 1.0.0, Redback Plugin. SVG Version: 6.00 Build 0) Made by Andrew Butler at Cox Architecture -->
    <!DOCTYPE svg PUBLIC "-//W3C//DTD SVG 1.1//EN" "http://www.w3.org/Graphics/SVG/1.1/DTD/svg11.dtd">
    <svg version="1.1" xmlns="http://www.w3.org/2000/svg" xmlns:xlink="http://www.w3.org/1999/xlink" x="0px" y="0px"
    width="297mm" height="210mm" viewBox="0 0 297 210" xml:space="preserve">
    <style type="text/css">
    
    </style>
    <path spline_1deg="" d=" M53.89,144.36 L54.53,144.36 L54.73,144.38 L54.89,144.46 L54.95,144.52 L54.99,144.59 L55.02,144.77 L55.02,144.82 L54.99,145.00 L54.94,145.07 L54.88,145.13 L54.73,145.21 L54.53,145.24 L53.89,145.24Z" />
<path spline_1deg="" d=" M53.89,142.87 L54.52,142.87 L54.71,142.90 L54.87,142.98 L54.92,143.04 L54.97,143.11 L55.00,143.28 L55.00,143.33 L54.97,143.50 L54.86,143.63 L54.71,143.71 L54.52,143.74 L53.89,143.74Z" />
<path spline_1deg="" d=" M57.80,144.80 L57.80,144.85 L57.79,144.97 L57.75,145.08 L57.70,145.17 L57.63,145.25 L57.53,145.32 L57.43,145.37 L57.31,145.39 L57.18,145.40 L57.00,145.38 L56.87,145.32 L56.79,145.22 L56.76,145.09 L56.78,144.97 L56.86,144.87 L56.98,144.82 L57.14,144.80Z" />
<path spline_1deg="" d=" M68.01,145.35 L67.87,145.34 L67.74,145.30 L67.62,145.24 L67.52,145.16 L67.43,145.05 L67.37,144.93 L67.33,144.78 L67.32,144.61 L67.32,144.56 L67.33,144.39 L67.37,144.24 L67.43,144.11 L67.52,144.00 L67.62,143.92 L67.74,143.86 L67.87,143.82 L68.01,143.81 L68.16,143.82 L68.29,143.86 L68.40,143.92 L68.51,144.00 L68.59,144.11 L68.65,144.24 L68.69,144.39 L68.70,144.56 L68.70,144.61 L68.69,144.78 L68.65,144.93 L68.59,145.05 L68.50,145.16 L68.40,145.24 L68.28,145.30 L68.15,145.34Z" />
<path spline_1deg="" d=" M71.16,145.35 L71.02,145.34 L70.89,145.30 L70.77,145.24 L70.66,145.16 L70.58,145.05 L70.52,144.93 L70.48,144.78 L70.47,144.61 L70.47,144.56 L70.48,144.39 L70.52,144.24 L70.58,144.11 L70.66,144.00 L70.77,143.92 L70.89,143.86 L71.02,143.82 L71.16,143.81 L71.30,143.82 L71.43,143.86 L71.55,143.92 L71.65,144.00 L71.74,144.11 L71.80,144.24 L71.84,144.39 L71.85,144.56 L71.85,144.61 L71.84,144.78 L71.80,144.93 L71.74,145.05 L71.65,145.16 L71.55,145.24 L71.43,145.30 L71.30,145.34Z" />
<path spline_1deg="" d=" M104.43,122.82 L104.98,122.82 L105.12,122.84 L105.23,122.91 L105.30,123.01 L105.32,123.14 L105.32,123.17 L105.30,123.30 L105.23,123.40 L105.12,123.47 L104.98,123.49 L104.43,123.49Z" />
<path spline_1deg="" d=" M106.97,124.47 L106.79,124.44 L106.64,124.34 L106.58,124.27 L106.54,124.19 L106.51,123.97 L106.51,123.94 L106.54,123.73 L106.58,123.64 L106.64,123.57 L106.79,123.47 L106.97,123.44 L107.15,123.47 L107.30,123.57 L107.36,123.64 L107.40,123.73 L107.43,123.94 L107.43,123.97 L107.40,124.19 L107.36,124.27 L107.30,124.34 L107.15,124.44Z" />
<path spline_1deg="" d=" M109.07,124.47 L108.89,124.44 L108.74,124.34 L108.68,124.27 L108.64,124.19 L108.61,123.97 L108.61,123.94 L108.64,123.73 L108.68,123.64 L108.74,123.57 L108.89,123.47 L109.07,123.44 L109.25,123.47 L109.40,123.57 L109.46,123.64 L109.50,123.73 L109.53,123.94 L109.53,123.97 L109.50,124.19 L109.46,124.27 L109.40,124.34 L109.25,124.44Z" />
<path spline_1deg="" d=" M60.82,122.82 L61.36,122.82 L61.50,122.84 L61.61,122.91 L61.68,123.01 L61.70,123.14 L61.70,123.17 L61.68,123.30 L61.61,123.40 L61.50,123.47 L61.36,123.49 L60.82,123.49Z" />
<path spline_1deg="" d=" M63.35,124.47 L63.17,124.44 L63.02,124.34 L62.97,124.27 L62.93,124.19 L62.89,123.97 L62.89,123.94 L62.93,123.73 L62.97,123.64 L63.02,123.57 L63.17,123.47 L63.35,123.44 L63.54,123.47 L63.68,123.57 L63.74,123.64 L63.78,123.73 L63.81,123.94 L63.81,123.97 L63.78,124.19 L63.74,124.27 L63.68,124.34 L63.53,124.44Z" />
<path spline_1deg="" d=" M65.45,124.47 L65.27,124.44 L65.12,124.34 L65.07,124.27 L65.02,124.19 L64.99,123.97 L64.99,123.94 L65.02,123.73 L65.07,123.64 L65.12,123.57 L65.27,123.47 L65.45,123.44 L65.64,123.47 L65.78,123.57 L65.84,123.64 L65.88,123.73 L65.91,123.94 L65.91,123.97 L65.88,124.19 L65.84,124.27 L65.78,124.34 L65.63,124.44Z" />
<path spline_1deg="" d=" M98.63,144.36 L99.26,144.36 L99.47,144.38 L99.62,144.46 L99.68,144.52 L99.73,144.59 L99.76,144.77 L99.76,144.82 L99.72,145.00 L99.68,145.07 L99.62,145.13 L99.46,145.21 L99.26,145.24 L98.63,145.24Z" />
<path spline_1deg="" d=" M98.63,142.87 L99.25,142.87 L99.45,142.90 L99.60,142.98 L99.66,143.04 L99.70,143.11 L99.74,143.28 L99.74,143.33 L99.70,143.50 L99.60,143.63 L99.45,143.71 L99.25,143.74 L98.63,143.74Z" />
<path spline_1deg="" d=" M102.75,144.29 L101.55,144.29 L101.62,144.09 L101.74,143.93 L101.83,143.88 L101.92,143.83 L102.16,143.80 L102.39,143.83 L102.48,143.88 L102.64,144.01 L102.69,144.09Z" />
<path spline_1deg="" d=" M105.20,145.36 L105.06,145.35 L104.93,145.32 L104.81,145.25 L104.71,145.17 L104.62,145.06 L104.56,144.93 L104.52,144.78 L104.51,144.61 L104.51,144.56 L104.52,144.38 L104.56,144.23 L104.62,144.10 L104.71,143.99 L104.81,143.91 L104.93,143.85 L105.06,143.81 L105.20,143.80 L105.35,143.81 L105.48,143.85 L105.60,143.91 L105.71,143.99 L105.79,144.10 L105.85,144.23 L105.89,144.38 L105.90,144.56 L105.90,144.61 L105.89,144.78 L105.85,144.93 L105.79,145.06 L105.70,145.17 L105.60,145.25 L105.48,145.32 L105.35,145.35Z" />
<path spline_1deg="" d=" M110.51,145.35 L110.37,145.34 L110.24,145.30 L110.12,145.24 L110.02,145.16 L109.93,145.05 L109.87,144.93 L109.84,144.78 L109.82,144.61 L109.82,144.56 L109.84,144.39 L109.87,144.24 L109.93,144.11 L110.02,144.00 L110.12,143.92 L110.24,143.86 L110.37,143.82 L110.51,143.81 L110.66,143.82 L110.79,143.86 L110.91,143.92 L111.01,144.00 L111.09,144.11 L111.15,144.24 L111.19,144.39 L111.20,144.56 L111.20,144.61 L111.19,144.78 L111.15,144.93 L111.09,145.05 L111.01,145.16 L110.90,145.24 L110.78,145.30 L110.65,145.34Z" />
<path spline_1deg="" d=" M113.66,145.35 L113.52,145.34 L113.39,145.30 L113.27,145.24 L113.17,145.16 L113.08,145.05 L113.02,144.93 L112.98,144.78 L112.97,144.61 L112.97,144.56 L112.98,144.39 L113.02,144.24 L113.08,144.11 L113.17,144.00 L113.27,143.92 L113.39,143.86 L113.52,143.82 L113.66,143.81 L113.80,143.82 L113.94,143.86 L114.05,143.92 L114.16,144.00 L114.24,144.11 L114.30,144.24 L114.34,144.39 L114.35,144.56 L114.35,144.61 L114.34,144.78 L114.30,144.93 L114.24,145.05 L114.15,145.16 L114.05,145.24 L113.93,145.30 L113.80,145.34Z" />
<path spline_1deg="" d=" M186.34,185.48 L186.88,185.48 L187.02,185.51 L187.13,185.57 L187.20,185.67 L187.22,185.80 L187.22,185.84 L187.20,185.97 L187.13,186.07 L187.02,186.13 L186.88,186.16 L186.34,186.16Z" />
<path spline_1deg="" d=" M189.22,186.43 L188.42,186.43 L188.47,186.29 L188.55,186.19 L188.67,186.12 L188.83,186.10 L188.98,186.12 L189.10,186.19 L189.18,186.29Z" />
<path spline_1deg="" d=" M198.11,186.77 L198.11,186.80 L198.08,186.95 L198.00,187.07 L197.87,187.15 L197.70,187.17 L197.58,187.16 L197.49,187.11 L197.44,187.05 L197.42,186.96 L197.44,186.88 L197.49,186.82 L197.57,186.78 L197.68,186.77Z" />
<path spline_1deg="" d=" M158.07,185.48 L158.61,185.48 L158.76,185.51 L158.87,185.57 L158.93,185.67 L158.96,185.80 L158.96,185.84 L158.93,185.97 L158.86,186.07 L158.76,186.13 L158.61,186.16 L158.07,186.16Z" />
<path spline_1deg="" d=" M165.74,187.14 L165.56,187.10 L165.42,187.01 L165.36,186.94 L165.32,186.85 L165.28,186.64 L165.28,186.60 L165.32,186.39 L165.36,186.31 L165.42,186.24 L165.56,186.14 L165.74,186.11 L165.93,186.14 L166.08,186.24 L166.13,186.31 L166.17,186.39 L166.20,186.60 L166.20,186.64 L166.17,186.85 L166.13,186.94 L166.07,187.01 L165.93,187.10Z" />
<path spline_1deg="" d=" M168.59,186.47 L169.02,186.47 L169.15,186.49 L169.26,186.54 L169.32,186.63 L169.34,186.75 L169.34,186.78 L169.32,186.90 L169.25,186.99 L169.15,187.04 L169.02,187.06 L168.59,187.06Z" />
<path spline_1deg="" d=" M168.59,185.48 L169.01,185.48 L169.14,185.50 L169.24,185.55 L169.31,185.64 L169.33,185.75 L169.33,185.79 L169.31,185.90 L169.24,185.99 L169.14,186.04 L169.01,186.06 L168.59,186.06Z" />
<path spline_1deg="" d=" M172.69,186.43 L171.90,186.43 L171.94,186.29 L172.03,186.19 L172.15,186.12 L172.30,186.10 L172.46,186.12 L172.58,186.19 L172.66,186.29Z" />
<path spline_1deg="" d=" M174.41,187.14 L174.23,187.11 L174.08,187.01 L174.02,186.94 L173.98,186.86 L173.94,186.64 L173.94,186.60 L173.98,186.39 L174.02,186.30 L174.08,186.23 L174.23,186.13 L174.41,186.10 L174.59,186.13 L174.74,186.23 L174.80,186.30 L174.84,186.39 L174.87,186.60 L174.87,186.64 L174.84,186.86 L174.80,186.94 L174.74,187.01 L174.59,187.11Z" />
<path spline_1deg="" d=" M213.03,176.86 L213.03,176.90 L213.01,177.05 L212.92,177.17 L212.79,177.24 L212.62,177.27 L212.50,177.25 L212.41,177.21 L212.36,177.14 L212.34,177.06 L212.36,176.98 L212.41,176.92 L212.49,176.88 L212.60,176.86Z" />
<path spline_1deg="" d=" M214.89,177.24 L214.71,177.21 L214.56,177.11 L214.50,177.04 L214.46,176.95 L214.43,176.74 L214.43,176.70 L214.46,176.49 L214.50,176.40 L214.56,176.33 L214.71,176.23 L214.89,176.20 L215.08,176.23 L215.23,176.33 L215.28,176.40 L215.33,176.49 L215.36,176.70 L215.36,176.74 L215.33,176.95 L215.28,177.04 L215.23,177.11 L215.08,177.21Z" />
<path spline_1deg="" d=" M221.48,176.86 L221.48,176.90 L221.45,177.05 L221.37,177.17 L221.24,177.24 L221.07,177.27 L220.95,177.25 L220.86,177.21 L220.81,177.14 L220.79,177.06 L220.81,176.98 L220.86,176.92 L220.94,176.88 L221.05,176.86Z" />
<path spline_1deg="" d=" M225.73,177.23 L225.55,177.20 L225.40,177.11 L225.35,177.03 L225.31,176.95 L225.27,176.74 L225.27,176.70 L225.31,176.49 L225.35,176.41 L225.40,176.33 L225.55,176.24 L225.73,176.21 L225.92,176.24 L226.06,176.33 L226.12,176.41 L226.16,176.49 L226.19,176.70 L226.19,176.74 L226.16,176.95 L226.12,177.03 L226.06,177.11 L225.92,177.20Z" />
<path spline_1deg="" d=" M233.84,177.23 L233.66,177.20 L233.51,177.11 L233.45,177.03 L233.41,176.95 L233.38,176.74 L233.38,176.70 L233.41,176.49 L233.45,176.41 L233.51,176.33 L233.66,176.24 L233.84,176.21 L234.02,176.24 L234.17,176.33 L234.23,176.41 L234.27,176.49 L234.30,176.70 L234.30,176.74 L234.27,176.95 L234.23,177.03 L234.17,177.11 L234.02,177.20Z" />
<path spline_1deg="" d=" M235.94,177.24 L235.76,177.21 L235.61,177.11 L235.55,177.04 L235.51,176.95 L235.48,176.74 L235.48,176.70 L235.51,176.49 L235.55,176.40 L235.61,176.33 L235.76,176.23 L235.94,176.20 L236.13,176.23 L236.28,176.33 L236.34,176.40 L236.38,176.49 L236.41,176.70 L236.41,176.74 L236.38,176.95 L236.34,177.04 L236.28,177.11 L236.13,177.21Z" />
<path spline_1deg="" d=" M238.47,176.52 L237.68,176.52 L237.72,176.39 L237.80,176.29 L237.92,176.22 L238.08,176.20 L238.23,176.22 L238.35,176.29 L238.43,176.39Z" />
<path spline_1deg="" d=" M128.28,175.58 L128.77,175.58 L128.92,175.60 L129.03,175.67 L129.11,175.78 L129.13,175.91 L129.13,175.95 L129.11,176.09 L129.03,176.19 L128.92,176.26 L128.77,176.28 L128.28,176.28Z" />
<path spline_1deg="" d=" M130.72,177.23 L130.54,177.20 L130.39,177.11 L130.33,177.03 L130.29,176.95 L130.26,176.74 L130.26,176.70 L130.29,176.49 L130.33,176.41 L130.39,176.33 L130.54,176.24 L130.72,176.21 L130.90,176.24 L131.05,176.33 L131.11,176.41 L131.15,176.49 L131.18,176.70 L131.18,176.74 L131.15,176.95 L131.11,177.03 L131.05,177.11 L130.90,177.20Z" />
<path spline_1deg="" d=" M141.40,177.23 L141.22,177.20 L141.07,177.11 L141.01,177.03 L140.97,176.95 L140.94,176.74 L140.94,176.70 L140.97,176.49 L141.01,176.41 L141.07,176.33 L141.22,176.24 L141.40,176.21 L141.58,176.24 L141.73,176.33 L141.78,176.41 L141.82,176.49 L141.86,176.70 L141.86,176.74 L141.82,176.95 L141.78,177.03 L141.73,177.11 L141.58,177.20Z" />
<path spline_1deg="" d=" M145.61,177.24 L145.43,177.21 L145.28,177.11 L145.22,177.04 L145.18,176.95 L145.15,176.74 L145.15,176.70 L145.18,176.49 L145.22,176.40 L145.28,176.33 L145.43,176.23 L145.61,176.20 L145.80,176.23 L145.95,176.33 L146.01,176.40 L146.05,176.49 L146.08,176.70 L146.08,176.74 L146.05,176.95 L146.01,177.04 L145.95,177.11 L145.80,177.21Z" />
<path spline_1deg="" d=" M22.48,30.72 L22.36,30.71 L22.25,30.68 L22.16,30.64 L22.08,30.57 L22.02,30.49 L21.98,30.40 L21.94,30.18 L21.94,29.58 L21.98,29.35 L22.02,29.26 L22.08,29.18 L22.16,29.12 L22.25,29.07 L22.36,29.04 L22.60,29.04 L22.70,29.07 L22.79,29.12 L22.87,29.18 L22.93,29.26 L22.98,29.35 L23.01,29.58 L23.01,30.18 L22.98,30.40 L22.93,30.49 L22.87,30.57 L22.79,30.64 L22.70,30.68 L22.60,30.71Z" />
<path spline_1deg="" d=" M31.25,29.09 L31.79,29.09 L31.94,29.11 L32.05,29.18 L32.12,29.28 L32.14,29.41 L32.14,29.44 L32.12,29.57 L32.05,29.67 L31.94,29.74 L31.79,29.76 L31.25,29.76Z" />
<path spline_1deg="" d=" M18.10,44.47 L18.39,45.64 L17.75,45.64 L18.04,44.47Z" />
<path spline_1deg="" d=" M24.16,44.60 L24.70,44.60 L24.84,44.62 L24.95,44.68 L25.02,44.79 L25.04,44.92 L25.04,44.95 L25.02,45.08 L24.95,45.18 L24.84,45.25 L24.70,45.27 L24.16,45.27Z" />
<path spline_1deg="" d=" M33.60,44.47 L33.89,45.64 L33.25,45.64 L33.54,44.47Z" />
<path spline_1deg="" d=" M24.60,15.63 L24.42,15.62 L24.26,15.58 L24.12,15.51 L24.01,15.41 L23.91,15.29 L23.85,15.15 L23.81,15.00 L23.79,14.82 L23.79,13.92 L23.81,13.74 L23.85,13.58 L23.91,13.44 L24.01,13.32 L24.12,13.23 L24.26,13.16 L24.42,13.12 L24.60,13.10 L24.78,13.12 L24.93,13.16 L25.07,13.23 L25.19,13.32 L25.28,13.44 L25.34,13.58 L25.38,13.74 L25.40,13.92 L25.40,14.82 L25.38,15.00 L25.34,15.15 L25.28,15.29 L25.19,15.41 L25.07,15.51 L24.93,15.58 L24.78,15.62Z" />
<path spline_1deg="" d=" M27.72,13.19 L28.06,13.19 L28.25,13.20 L28.42,13.24 L28.55,13.31 L28.66,13.40 L28.75,13.52 L28.81,13.66 L28.84,13.82 L28.85,14.01 L28.85,14.73 L28.84,14.91 L28.81,15.08 L28.75,15.22 L28.66,15.34 L28.55,15.43 L28.42,15.50 L28.25,15.54 L28.06,15.55 L27.72,15.55Z" />
<path spline_1deg="" d=" M170.97,94.77 L171.40,94.77 L171.53,94.79 L171.64,94.84 L171.70,94.93 L171.72,95.05 L171.72,95.08 L171.70,95.20 L171.63,95.29 L171.53,95.34 L171.40,95.36 L170.97,95.36Z" />
<path spline_1deg="" d=" M170.97,93.78 L171.39,93.78 L171.52,93.80 L171.62,93.85 L171.69,93.94 L171.71,94.05 L171.71,94.09 L171.69,94.20 L171.62,94.28 L171.52,94.34 L171.39,94.36 L170.97,94.36Z" />
<path spline_1deg="" d=" M182.90,94.72 L182.10,94.72 L182.15,94.59 L182.23,94.49 L182.35,94.42 L182.51,94.40 L182.66,94.42 L182.78,94.49 L182.86,94.59Z" />
<path spline_1deg="" d=" M187.80,94.72 L187.01,94.72 L187.05,94.59 L187.14,94.49 L187.26,94.42 L187.41,94.40 L187.57,94.42 L187.69,94.49 L187.77,94.59Z" />
<path spline_1deg="" d=" M181.93,115.51 L181.93,115.55 L181.90,115.70 L181.81,115.82 L181.68,115.89 L181.51,115.92 L181.39,115.90 L181.30,115.86 L181.25,115.79 L181.23,115.71 L181.25,115.63 L181.30,115.56 L181.38,115.53 L181.49,115.51Z" />
<path spline_1deg="" d=" M169.73,135.77 L170.36,135.77 L170.57,135.80 L170.72,135.88 L170.78,135.94 L170.82,136.01 L170.86,136.18 L170.86,136.24 L170.82,136.41 L170.78,136.48 L170.72,136.54 L170.56,136.63 L170.36,136.65 L169.73,136.65Z" />
<path spline_1deg="" d=" M169.73,134.29 L170.35,134.29 L170.55,134.31 L170.70,134.39 L170.76,134.45 L170.80,134.52 L170.84,134.69 L170.84,134.74 L170.80,134.91 L170.70,135.04 L170.55,135.12 L170.35,135.15 L169.73,135.15Z" />
<path spline_1deg="" d=" M174.69,136.77 L174.55,136.75 L174.42,136.72 L174.31,136.66 L174.20,136.57 L174.12,136.47 L174.05,136.34 L174.02,136.19 L174.01,136.02 L174.01,135.97 L174.02,135.80 L174.05,135.65 L174.12,135.52 L174.20,135.42 L174.31,135.33 L174.42,135.27 L174.55,135.24 L174.69,135.22 L174.84,135.24 L174.97,135.27 L175.09,135.33 L175.19,135.42 L175.28,135.52 L175.34,135.65 L175.37,135.80 L175.38,135.97 L175.38,136.02 L175.37,136.19 L175.33,136.34 L175.27,136.47 L175.19,136.57 L175.08,136.66 L174.97,136.72 L174.84,136.75Z" />
<path spline_1deg="" d=" M189.99,136.21 L189.99,136.26 L189.98,136.38 L189.95,136.49 L189.89,136.58 L189.82,136.67 L189.72,136.73 L189.62,136.78 L189.50,136.81 L189.37,136.82 L189.19,136.80 L189.06,136.73 L188.98,136.63 L188.95,136.50 L188.98,136.38 L189.05,136.29 L189.18,136.23 L189.34,136.21Z" />
<path spline_1deg="" d=" M253.51,74.06 L254.05,74.06 L254.20,74.09 L254.31,74.15 L254.37,74.25 L254.40,74.38 L254.40,74.42 L254.37,74.55 L254.30,74.65 L254.20,74.71 L254.05,74.74 L253.51,74.74Z" />
<path spline_1deg="" d=" M256.39,75.01 L255.60,75.01 L255.64,74.87 L255.73,74.77 L255.85,74.70 L256.00,74.68 L256.16,74.70 L256.28,74.77 L256.36,74.87Z" />
<path spline_1deg="" d=" M265.29,75.35 L265.29,75.38 L265.26,75.53 L265.17,75.65 L265.04,75.73 L264.88,75.75 L264.76,75.74 L264.67,75.69 L264.61,75.63 L264.60,75.54 L264.61,75.46 L264.66,75.40 L264.75,75.36 L264.85,75.35Z" />
<path spline_1deg="" d=" M254.50,53.61 L255.04,53.61 L255.19,53.64 L255.29,53.70 L255.36,53.80 L255.38,53.93 L255.38,53.97 L255.36,54.10 L255.29,54.20 L255.18,54.26 L255.04,54.29 L254.50,54.29Z" />
<path spline_1deg="" d=" M262.17,55.27 L261.99,55.23 L261.84,55.14 L261.78,55.07 L261.74,54.98 L261.71,54.77 L261.71,54.74 L261.74,54.52 L261.78,54.44 L261.84,54.37 L261.99,54.27 L262.17,54.24 L262.35,54.27 L262.50,54.37 L262.56,54.44 L262.60,54.52 L262.63,54.74 L262.63,54.77 L262.60,54.98 L262.56,55.07 L262.50,55.14 L262.35,55.23Z" />
<path spline_1deg="" d=" M265.02,54.60 L265.44,54.60 L265.58,54.62 L265.68,54.67 L265.75,54.76 L265.77,54.88 L265.77,54.91 L265.75,55.03 L265.68,55.12 L265.58,55.17 L265.44,55.19 L265.02,55.19Z" />
<path spline_1deg="" d=" M265.02,53.61 L265.43,53.61 L265.57,53.63 L265.67,53.68 L265.73,53.77 L265.76,53.89 L265.76,53.92 L265.73,54.03 L265.67,54.12 L265.56,54.17 L265.43,54.19 L265.02,54.19Z" />
<path spline_1deg="" d=" M269.12,54.56 L268.33,54.56 L268.37,54.42 L268.45,54.32 L268.57,54.25 L268.73,54.23 L268.88,54.25 L269.00,54.32 L269.08,54.42Z" />
<path spline_1deg="" d=" M270.83,55.27 L270.65,55.24 L270.50,55.15 L270.44,55.07 L270.40,54.99 L270.37,54.77 L270.37,54.74 L270.40,54.52 L270.44,54.43 L270.50,54.36 L270.65,54.26 L270.83,54.23 L271.02,54.26 L271.17,54.36 L271.23,54.43 L271.27,54.52 L271.30,54.74 L271.30,54.77 L271.27,54.99 L271.23,55.07 L271.17,55.15 L271.02,55.24Z" />
<path spline_1deg="" d=" M87.36,95.80 L87.36,95.83 L87.33,95.98 L87.24,96.10 L87.11,96.18 L86.94,96.20 L86.82,96.19 L86.74,96.14 L86.68,96.08 L86.66,95.99 L86.68,95.91 L86.73,95.85 L86.81,95.81 L86.92,95.80Z" />
<path spline_1deg="" d=" M89.21,96.17 L89.03,96.14 L88.88,96.05 L88.82,95.97 L88.78,95.89 L88.75,95.67 L88.75,95.64 L88.78,95.42 L88.82,95.33 L88.88,95.26 L89.03,95.16 L89.21,95.13 L89.40,95.16 L89.55,95.26 L89.61,95.33 L89.65,95.42 L89.68,95.64 L89.68,95.67 L89.65,95.89 L89.61,95.97 L89.55,96.05 L89.40,96.14Z" />
<path spline_1deg="" d=" M95.80,95.80 L95.80,95.83 L95.78,95.98 L95.69,96.10 L95.56,96.18 L95.39,96.20 L95.27,96.19 L95.18,96.14 L95.13,96.08 L95.11,95.99 L95.13,95.91 L95.18,95.85 L95.26,95.81 L95.37,95.80Z" />
<path spline_1deg="" d=" M100.06,96.17 L99.87,96.14 L99.73,96.04 L99.67,95.97 L99.63,95.88 L99.60,95.67 L99.60,95.64 L99.63,95.42 L99.67,95.34 L99.73,95.27 L99.87,95.17 L100.06,95.14 L100.24,95.17 L100.39,95.27 L100.44,95.34 L100.48,95.42 L100.52,95.64 L100.52,95.67 L100.48,95.88 L100.44,95.97 L100.38,96.04 L100.24,96.14Z" />
<path spline_1deg="" d=" M108.16,96.17 L107.98,96.14 L107.83,96.04 L107.77,95.97 L107.73,95.88 L107.70,95.67 L107.70,95.64 L107.73,95.42 L107.77,95.34 L107.83,95.27 L107.98,95.17 L108.16,95.14 L108.34,95.17 L108.49,95.27 L108.55,95.34 L108.59,95.42 L108.62,95.64 L108.62,95.67 L108.59,95.88 L108.55,95.97 L108.49,96.04 L108.34,96.14Z" />
<path spline_1deg="" d=" M110.27,96.17 L110.08,96.14 L109.93,96.05 L109.87,95.97 L109.83,95.89 L109.80,95.67 L109.80,95.64 L109.83,95.42 L109.87,95.33 L109.93,95.26 L110.08,95.16 L110.27,95.13 L110.45,95.16 L110.60,95.26 L110.66,95.33 L110.70,95.42 L110.73,95.64 L110.73,95.67 L110.70,95.89 L110.66,95.97 L110.60,96.05 L110.45,96.14Z" />
<path spline_1deg="" d=" M112.79,95.46 L112.00,95.46 L112.04,95.32 L112.12,95.22 L112.25,95.15 L112.40,95.13 L112.55,95.15 L112.67,95.22 L112.76,95.32Z" />
<path spline_1deg="" d=" M89.91,74.06 L90.45,74.06 L90.60,74.09 L90.70,74.15 L90.77,74.25 L90.79,74.38 L90.79,74.42 L90.77,74.55 L90.70,74.65 L90.59,74.71 L90.45,74.74 L89.91,74.74Z" />
<path spline_1deg="" d=" M92.79,75.01 L92.00,75.01 L92.04,74.87 L92.12,74.77 L92.25,74.70 L92.40,74.68 L92.55,74.70 L92.67,74.77 L92.76,74.87Z" />
<path spline_1deg="" d=" M101.69,75.35 L101.69,75.38 L101.66,75.53 L101.57,75.65 L101.44,75.73 L101.28,75.75 L101.15,75.74 L101.07,75.69 L101.01,75.63 L100.99,75.54 L101.01,75.46 L101.06,75.40 L101.14,75.36 L101.25,75.35Z" />
<path spline_1deg="" d=" M90.90,53.61 L91.44,53.61 L91.58,53.64 L91.69,53.70 L91.76,53.80 L91.78,53.93 L91.78,53.97 L91.76,54.10 L91.69,54.20 L91.58,54.26 L91.44,54.29 L90.90,54.29Z" />
<path spline_1deg="" d=" M98.57,55.27 L98.39,55.23 L98.24,55.14 L98.18,55.07 L98.14,54.98 L98.11,54.77 L98.11,54.74 L98.14,54.52 L98.18,54.44 L98.24,54.37 L98.39,54.27 L98.57,54.24 L98.75,54.27 L98.90,54.37 L98.96,54.44 L99.00,54.52 L99.03,54.74 L99.03,54.77 L99.00,54.98 L98.96,55.07 L98.90,55.14 L98.75,55.23Z" />
<path spline_1deg="" d=" M101.42,54.60 L101.84,54.60 L101.98,54.62 L102.08,54.67 L102.15,54.76 L102.17,54.88 L102.17,54.91 L102.15,55.03 L102.08,55.12 L101.97,55.17 L101.84,55.19 L101.42,55.19Z" />
<path spline_1deg="" d=" M101.42,53.61 L101.83,53.61 L101.96,53.63 L102.07,53.68 L102.13,53.77 L102.16,53.89 L102.16,53.92 L102.13,54.03 L102.06,54.12 L101.96,54.17 L101.83,54.19 L101.42,54.19Z" />
<path spline_1deg="" d=" M105.52,54.56 L104.72,54.56 L104.77,54.42 L104.85,54.32 L104.97,54.25 L105.13,54.23 L105.28,54.25 L105.40,54.32 L105.48,54.42Z" />
<path spline_1deg="" d=" M107.23,55.27 L107.05,55.24 L106.90,55.15 L106.84,55.07 L106.80,54.99 L106.77,54.77 L106.77,54.74 L106.80,54.52 L106.84,54.43 L106.90,54.36 L107.05,54.26 L107.23,54.23 L107.42,54.26 L107.57,54.36 L107.62,54.43 L107.67,54.52 L107.70,54.74 L107.70,54.77 L107.67,54.99 L107.63,55.07 L107.57,55.15 L107.42,55.24Z" />
<path spline_1deg="" d=" M90.36,33.16 L90.85,33.16 L90.99,33.19 L91.11,33.25 L91.18,33.36 L91.21,33.50 L91.21,33.53 L91.18,33.67 L91.11,33.77 L90.99,33.84 L90.85,33.86 L90.36,33.86Z" />
<path spline_1deg="" d=" M92.80,34.82 L92.62,34.78 L92.47,34.69 L92.41,34.62 L92.37,34.53 L92.34,34.32 L92.34,34.29 L92.37,34.07 L92.41,33.99 L92.47,33.92 L92.62,33.82 L92.80,33.79 L92.98,33.82 L93.13,33.92 L93.18,33.99 L93.22,34.07 L93.26,34.29 L93.26,34.32 L93.22,34.53 L93.18,34.62 L93.13,34.69 L92.98,34.78Z" />
<path spline_1deg="" d=" M103.47,34.82 L103.29,34.78 L103.14,34.69 L103.09,34.62 L103.05,34.53 L103.01,34.32 L103.01,34.29 L103.05,34.07 L103.09,33.99 L103.14,33.92 L103.29,33.82 L103.47,33.79 L103.66,33.82 L103.80,33.92 L103.86,33.99 L103.90,34.07 L103.93,34.29 L103.93,34.32 L103.90,34.53 L103.86,34.62 L103.80,34.69 L103.66,34.78Z" />
<path spline_1deg="" d=" M107.69,34.82 L107.51,34.79 L107.36,34.70 L107.30,34.62 L107.26,34.54 L107.22,34.32 L107.22,34.29 L107.26,34.07 L107.30,33.98 L107.36,33.91 L107.51,33.81 L107.69,33.78 L107.88,33.81 L108.03,33.91 L108.08,33.98 L108.12,34.07 L108.16,34.29 L108.16,34.32 L108.12,34.54 L108.08,34.62 L108.02,34.70 L107.87,34.79Z" />
<path spline_1deg="" d=" M212.61,23.88 L211.82,23.88 L211.86,23.75 L211.94,23.65 L212.06,23.58 L212.22,23.56 L212.37,23.58 L212.49,23.65 L212.58,23.75Z" />
<path spline_1deg="" d=" M215.81,24.59 L215.63,24.56 L215.48,24.46 L215.42,24.39 L215.38,24.31 L215.35,24.09 L215.35,24.06 L215.38,23.85 L215.42,23.76 L215.48,23.69 L215.63,23.60 L215.81,23.56 L215.99,23.60 L216.14,23.69 L216.19,23.76 L216.23,23.85 L216.27,24.06 L216.27,24.09 L216.23,24.31 L216.19,24.39 L216.14,24.46 L215.99,24.56Z" />
<path spline_1deg="" d=" M225.61,23.88 L224.81,23.88 L224.86,23.75 L224.94,23.65 L225.06,23.58 L225.22,23.56 L225.37,23.58 L225.49,23.65 L225.57,23.75Z" />
<path spline_1deg="" d=" M230.52,23.88 L229.72,23.88 L229.76,23.75 L229.85,23.65 L229.97,23.58 L230.12,23.56 L230.28,23.58 L230.40,23.65 L230.48,23.75Z" />
<path spline_1deg="" d=" M220.89,44.33 L220.09,44.33 L220.13,44.20 L220.22,44.10 L220.34,44.03 L220.49,44.01 L220.65,44.03 L220.77,44.10 L220.85,44.20Z" />
<path spline_1deg="" d=" M224.74,44.33 L223.95,44.33 L223.99,44.20 L224.07,44.10 L224.20,44.03 L224.35,44.01 L224.50,44.03 L224.62,44.10 L224.71,44.20Z" />
<path spline_1deg="" d=" M218.56,64.86 L217.37,64.86 L217.43,64.66 L217.56,64.50 L217.64,64.45 L217.74,64.40 L217.97,64.37 L218.20,64.40 L218.30,64.45 L218.45,64.58 L218.50,64.66Z" />
<path spline_1deg="" d=" M224.34,64.86 L223.15,64.86 L223.22,64.66 L223.34,64.50 L223.43,64.45 L223.52,64.40 L223.76,64.37 L223.99,64.40 L224.08,64.45 L224.24,64.58 L224.29,64.66Z" />
<path spline_1deg="" d=" M130.07,23.93 L130.50,23.93 L130.63,23.94 L130.74,24.00 L130.80,24.09 L130.82,24.20 L130.82,24.24 L130.80,24.36 L130.73,24.44 L130.63,24.50 L130.50,24.52 L130.07,24.52Z" />
<path spline_1deg="" d=" M130.07,22.94 L130.49,22.94 L130.62,22.96 L130.72,23.01 L130.79,23.09 L130.81,23.21 L130.81,23.24 L130.79,23.36 L130.72,23.44 L130.62,23.50 L130.49,23.52 L130.07,23.52Z" />
<path spline_1deg="" d=" M142.00,23.88 L141.20,23.88 L141.25,23.75 L141.33,23.65 L141.45,23.58 L141.61,23.56 L141.76,23.58 L141.88,23.65 L141.96,23.75Z" />
<path spline_1deg="" d=" M146.90,23.88 L146.11,23.88 L146.15,23.75 L146.24,23.65 L146.36,23.58 L146.51,23.56 L146.67,23.58 L146.79,23.65 L146.87,23.75Z" />
<path spline_1deg="" d=" M137.14,43.39 L137.37,43.39 L137.50,43.40 L137.61,43.42 L137.70,43.47 L137.77,43.53 L137.83,43.61 L137.87,43.70 L137.90,43.94 L137.90,44.42 L137.87,44.65 L137.83,44.74 L137.77,44.82 L137.70,44.89 L137.61,44.93 L137.50,44.96 L137.37,44.97 L137.14,44.97Z" />
<path spline_1deg="" d=" M139.55,45.04 L139.37,45.01 L139.22,44.91 L139.16,44.84 L139.12,44.76 L139.09,44.54 L139.09,44.51 L139.12,44.30 L139.16,44.21 L139.22,44.14 L139.37,44.05 L139.55,44.01 L139.73,44.05 L139.88,44.14 L139.94,44.21 L139.98,44.30 L140.01,44.51 L140.01,44.54 L139.98,44.76 L139.94,44.84 L139.88,44.91 L139.73,45.01Z" />
<path spline_1deg="" d=" M141.65,45.04 L141.47,45.01 L141.32,44.91 L141.26,44.84 L141.22,44.76 L141.19,44.54 L141.19,44.51 L141.22,44.30 L141.26,44.21 L141.32,44.14 L141.47,44.05 L141.65,44.01 L141.83,44.05 L141.98,44.14 L142.04,44.21 L142.08,44.30 L142.11,44.51 L142.11,44.54 L142.08,44.76 L142.03,44.84 L141.98,44.91 L141.83,45.01Z" />
<path spline_1deg="" d=" M134.67,63.45 L135.01,63.45 L135.20,63.46 L135.36,63.50 L135.50,63.57 L135.61,63.66 L135.69,63.78 L135.75,63.92 L135.79,64.08 L135.80,64.27 L135.80,64.99 L135.79,65.17 L135.75,65.34 L135.69,65.48 L135.61,65.60 L135.50,65.69 L135.36,65.76 L135.20,65.80 L135.01,65.81 L134.67,65.81Z" />
<path spline_1deg="" d=" M142.23,65.91 L142.05,65.90 L141.90,65.86 L141.77,65.80 L141.66,65.71 L141.58,65.60 L141.52,65.46 L141.49,65.29 L141.48,65.10 L141.48,64.14 L141.49,63.97 L141.52,63.81 L141.59,63.67 L141.67,63.55 L141.78,63.46 L141.91,63.40 L142.06,63.36 L142.23,63.34 L142.39,63.36 L142.54,63.39 L142.66,63.46 L142.77,63.55 L142.86,63.66 L142.93,63.80 L142.96,63.96 L142.98,64.14 L142.98,65.10 L142.97,65.29 L142.93,65.45 L142.87,65.59 L142.79,65.70 L142.69,65.80 L142.56,65.86 L142.41,65.90Z" />
    </svg>