<?xml version="1.0" encoding="utf-8"?>
    <!-- Generator: Grasshopper 1.0.0, Redback Plugin. SVG Version: 6.00 Build 0) Made by Andrew Butler at Cox Architecture -->
    <!DOCTYPE svg PUBLIC "-//W3C//DTD SVG 1.1//EN" "http://www.w3.org/Graphics/SVG/1.1/DTD/svg11.dtd">
    <svg version="1.1" xmlns="http://www.w3.org/2000/svg" xmlns:xlink="http://www.w3.org/1999/xlink" x="0px" y="0px"
    width="297mm" height="210mm" viewBox="0 0 297 210" xml:space="preserve">
    <style type="text/css">
    *{fill:white; stroke-width:0.3mm; stroke-linejoin:round;}
.geometry{stroke:#F50057;}
.featureClass{stroke:#00BCD4;}
.node{stroke:#4CAF50;}
    </style>
    <path spline_1deg="" d=" M29.52,27.84 L25.98,25.80 L22.45,27.84 L22.45,31.92 L25.98,33.96 L29.52,31.92Z" class="geometry"/>
<path spline_1deg="" d=" M29.92,45.39 L25.98,41.44 L22.04,45.39 L25.98,49.33Z" class="featureClass"/>
<path spline_1deg="" d=" M34.69,14.37 L34.65,13.54 L34.53,12.72 L34.34,11.92 L34.07,11.13 L33.72,10.38 L33.31,9.66 L32.83,8.99 L32.28,8.36 L31.68,7.79 L31.03,7.28 L30.34,6.83 L29.60,6.45 L28.83,6.14 L28.03,5.91 L27.22,5.75 L26.40,5.67 L25.57,5.67 L24.74,5.75 L23.93,5.91 L23.13,6.14 L22.36,6.45 L21.63,6.83 L20.93,7.28 L20.28,7.79 L19.68,8.36 L19.14,8.99 L18.66,9.66 L18.24,10.38 L17.90,11.13 L17.63,11.92 L17.43,12.72 L17.31,13.54 L17.27,14.37 L17.31,15.20 L17.43,16.02 L17.63,16.82 L17.90,17.61 L18.24,18.36 L18.66,19.08 L19.14,19.75 L19.68,20.38 L20.28,20.95 L20.93,21.46 L21.63,21.91 L22.36,22.29 L23.13,22.60 L23.93,22.83 L24.74,22.99 L25.57,23.07 L26.40,23.07 L27.22,22.99 L28.03,22.83 L28.83,22.60 L29.60,22.29 L30.34,21.91 L31.03,21.46 L31.68,20.95 L32.28,20.38 L32.83,19.75 L33.31,19.08 L33.72,18.36 L34.07,17.61 L34.34,16.82 L34.53,16.02 L34.65,15.20Z" class="node"/>
<path spline_1deg="" d=" M194.78,184.23 L191.24,182.19 L187.71,184.23 L187.71,188.31 L191.24,190.35 L194.78,188.31Z" class="geometry"/>
<path spline_1deg="" d=" M174.33,184.23 L170.79,182.19 L167.26,184.23 L167.26,188.31 L170.79,190.35 L174.33,188.31Z" class="geometry"/>
<path spline_1deg="" d=" M184.96,94.57 L181.02,90.63 L177.07,94.57 L181.02,98.51Z" class="featureClass"/>
<path spline_1deg="" d=" M184.96,115.02 L181.02,111.08 L177.07,115.02 L181.02,118.96Z" class="featureClass"/>
<path spline_1deg="" d=" M215.23,174.33 L211.69,172.29 L208.16,174.33 L208.16,178.41 L211.69,180.45 L215.23,178.41Z" class="geometry"/>
<path spline_1deg="" d=" M153.88,174.33 L150.34,172.29 L146.81,174.33 L146.81,178.41 L150.34,180.45 L153.88,178.41Z" class="geometry"/>
<path spline_1deg="" d=" M189.73,135.47 L189.69,134.64 L189.57,133.82 L189.37,133.02 L189.10,132.23 L188.76,131.48 L188.34,130.76 L187.86,130.09 L187.32,129.46 L186.72,128.89 L186.07,128.38 L185.37,127.93 L184.64,127.55 L183.87,127.24 L183.07,127.01 L182.26,126.85 L181.43,126.77 L180.60,126.77 L179.78,126.85 L178.97,127.01 L178.17,127.24 L177.40,127.55 L176.66,127.93 L175.97,128.38 L175.32,128.89 L174.72,129.46 L174.17,130.09 L173.69,130.76 L173.28,131.48 L172.93,132.23 L172.66,133.02 L172.47,133.82 L172.35,134.64 L172.31,135.47 L172.35,136.30 L172.47,137.12 L172.66,137.92 L172.93,138.71 L173.28,139.46 L173.69,140.18 L174.17,140.85 L174.72,141.48 L175.32,142.05 L175.97,142.56 L176.66,143.01 L177.40,143.39 L178.17,143.70 L178.97,143.93 L179.78,144.09 L180.60,144.17 L181.43,144.17 L182.26,144.09 L183.07,143.93 L183.87,143.70 L184.64,143.39 L185.37,143.01 L186.07,142.56 L186.72,142.05 L187.32,141.48 L187.86,140.85 L188.34,140.18 L188.76,139.46 L189.10,138.71 L189.37,137.92 L189.57,137.12 L189.69,136.30Z" class="node"/>
<path spline_1deg="" d=" M266.35,72.81 L262.82,70.77 L259.29,72.81 L259.29,76.89 L262.82,78.93 L266.35,76.89Z" class="geometry"/>
<path spline_1deg="" d=" M266.35,52.36 L262.82,50.32 L259.29,52.36 L259.29,56.44 L262.82,58.48 L266.35,56.44Z" class="geometry"/>
<path spline_1deg="" d=" M102.75,93.26 L99.22,91.22 L95.68,93.26 L95.68,97.34 L99.22,99.38 L102.75,97.34Z" class="geometry"/>
<path spline_1deg="" d=" M102.75,72.81 L99.22,70.77 L95.68,72.81 L95.68,76.89 L99.22,78.93 L102.75,76.89Z" class="geometry"/>
<path spline_1deg="" d=" M102.75,52.36 L99.22,50.32 L95.68,52.36 L95.68,56.44 L99.22,58.48 L102.75,56.44Z" class="geometry"/>
<path spline_1deg="" d=" M102.75,31.91 L99.22,29.87 L95.68,31.91 L95.68,35.99 L99.22,38.03 L102.75,35.99Z" class="geometry"/>
<path spline_1deg="" d=" M225.86,23.73 L221.92,19.78 L217.97,23.73 L221.92,27.67Z" class="featureClass"/>
<path spline_1deg="" d=" M225.86,44.18 L221.92,40.23 L217.97,44.18 L221.92,48.12Z" class="featureClass"/>
<path spline_1deg="" d=" M230.63,64.63 L230.59,63.80 L230.47,62.98 L230.27,62.17 L230.00,61.39 L229.66,60.64 L229.24,59.92 L228.76,59.25 L228.22,58.62 L227.62,58.05 L226.97,57.53 L226.27,57.09 L225.54,56.71 L224.77,56.40 L223.97,56.17 L223.16,56.01 L222.33,55.93 L221.50,55.93 L220.68,56.01 L219.87,56.17 L219.07,56.40 L218.30,56.71 L217.56,57.09 L216.87,57.53 L216.22,58.05 L215.62,58.62 L215.07,59.25 L214.59,59.92 L214.18,60.64 L213.83,61.39 L213.56,62.17 L213.37,62.98 L213.25,63.80 L213.21,64.63 L213.25,65.46 L213.37,66.28 L213.56,67.08 L213.83,67.86 L214.18,68.62 L214.59,69.34 L215.07,70.01 L215.62,70.64 L216.22,71.21 L216.87,71.72 L217.56,72.17 L218.30,72.55 L219.07,72.86 L219.87,73.09 L220.68,73.25 L221.50,73.33 L222.33,73.33 L223.16,73.25 L223.97,73.09 L224.77,72.86 L225.54,72.55 L226.27,72.17 L226.97,71.72 L227.62,71.21 L228.22,70.64 L228.76,70.01 L229.24,69.34 L229.66,68.62 L230.00,67.86 L230.27,67.08 L230.47,66.28 L230.59,65.46Z" class="node"/>
<path spline_1deg="" d=" M144.06,23.73 L140.12,19.78 L136.17,23.73 L140.12,27.67Z" class="featureClass"/>
<path spline_1deg="" d=" M144.06,44.18 L140.12,40.23 L136.17,44.18 L140.12,48.12Z" class="featureClass"/>
<path spline_1deg="" d=" M148.83,64.63 L148.79,63.80 L148.67,62.98 L148.47,62.17 L148.20,61.39 L147.86,60.64 L147.44,59.92 L146.96,59.25 L146.42,58.62 L145.82,58.05 L145.17,57.53 L144.47,57.09 L143.74,56.71 L142.97,56.40 L142.17,56.17 L141.36,56.01 L140.53,55.93 L139.70,55.93 L138.88,56.01 L138.06,56.17 L137.27,56.40 L136.50,56.71 L135.76,57.09 L135.07,57.53 L134.42,58.05 L133.82,58.62 L133.27,59.25 L132.79,59.92 L132.38,60.64 L132.03,61.39 L131.76,62.17 L131.57,62.98 L131.45,63.80 L131.41,64.63 L131.45,65.46 L131.57,66.28 L131.76,67.08 L132.03,67.86 L132.38,68.62 L132.79,69.34 L133.27,70.01 L133.82,70.64 L134.42,71.21 L135.07,71.72 L135.76,72.17 L136.50,72.55 L137.27,72.86 L138.06,73.09 L138.88,73.25 L139.70,73.33 L140.53,73.33 L141.36,73.25 L142.17,73.09 L142.97,72.86 L143.74,72.55 L144.47,72.17 L145.17,71.72 L145.82,71.21 L146.42,70.64 L146.96,70.01 L147.44,69.34 L147.86,68.62 L148.20,67.86 L148.47,67.08 L148.67,66.28 L148.79,65.46Z" class="node"/>
    </svg>